<svg width="130" height="56" viewBox="0 0 130 56" fill="none" xmlns="http://www.w3.org/2000/svg">
<path d="M83.6893 4.67493C85.0156 4.67493 86.0908 3.90692 86.0908 2.95953C86.0908 2.01215 85.0156 1.24414 83.6893 1.24414C82.3629 1.24414 81.2877 2.01215 81.2877 2.95953C81.2877 3.90692 82.3629 4.67493 83.6893 4.67493Z" fill="white"/>
<path d="M76.3885 4.67493C77.7148 4.67493 78.79 3.90692 78.79 2.95953C78.79 2.01215 77.7148 1.24414 76.3885 1.24414C75.0621 1.24414 73.9869 2.01215 73.9869 2.95953C73.9869 3.90692 75.0621 4.67493 76.3885 4.67493Z" fill="white"/>
<path d="M45.3781 6.33655C46.7045 6.33655 47.7797 5.56854 47.7797 4.62115C47.7797 3.67377 46.7045 2.90576 45.3781 2.90576C44.0518 2.90576 42.9766 3.67377 42.9766 4.62115C42.9766 5.56854 44.0518 6.33655 45.3781 6.33655Z" fill="white"/>
<path d="M91.2746 4.67493C92.6009 4.67493 93.6761 3.90692 93.6761 2.95953C93.6761 2.01215 92.6009 1.24414 91.2746 1.24414C89.9483 1.24414 88.873 2.01215 88.873 2.95953C88.873 3.90692 89.9483 4.67493 91.2746 4.67493Z" fill="white"/>
<path d="M91.2746 27.3395C92.6009 27.3395 93.6761 26.5715 93.6761 25.6241C93.6761 24.6767 92.6009 23.9087 91.2746 23.9087C89.9483 23.9087 88.873 24.6767 88.873 25.6241C88.873 26.5715 89.9483 27.3395 91.2746 27.3395Z" fill="white"/>
<path d="M89.773 7.21763C88.2738 7.01386 87.3947 7.86012 86.9202 8.78124C85.0863 12.3472 83.4096 15.9589 81.8697 19.5976C81.2409 21.0842 80.4928 22.3713 82.4723 22.8579C84.6992 23.4068 84.8476 22.3734 85.6248 20.762C87.2695 17.352 88.9724 13.6966 90.6317 10.0392C91.3973 8.35498 91.5748 7.4609 89.773 7.21763Z" fill="white"/>
<path d="M82.4226 7.21763C80.9235 7.01386 80.0444 7.86012 79.5699 8.78124C77.736 12.3472 76.0593 15.9589 74.5193 19.5976C73.8906 21.0842 73.1425 22.3713 75.1219 22.8579C77.3488 23.4068 77.4973 22.3734 78.2745 20.762C79.9192 17.352 81.6221 13.6966 83.2814 10.0392C84.0469 8.35498 84.2245 7.4609 82.4226 7.21763Z" fill="white"/>
<path d="M75.0726 7.21763C73.5735 7.01386 72.6944 7.86012 72.2199 8.78124C70.386 12.3472 68.7093 15.9589 67.1694 19.5976C66.5406 21.0842 65.7925 22.3713 67.7719 22.8579C69.9988 23.4068 70.1473 22.3734 70.9245 20.762C72.5692 17.352 74.2721 13.6966 75.9314 10.0392C76.697 8.35498 76.8745 7.4609 75.0726 7.21763Z" fill="white"/>
<path d="M66.2552 8.83166C64.9104 8.64868 64.1215 9.40969 63.6965 10.2352C62.0489 13.4372 60.5439 16.6788 59.1612 19.9453C58.5965 21.2802 57.927 22.4342 59.6997 22.8729C61.6996 23.3657 61.8335 22.4384 62.5292 20.9912C64.0051 17.9305 65.5333 14.6474 67.0237 11.3663C67.7136 9.85466 67.8708 9.05206 66.2552 8.83166Z" fill="white"/>
<path d="M98.5904 1.2863C97.0912 1.0056 96.2121 2.17206 95.7376 3.43833C93.9037 8.34539 92.227 13.3148 90.6871 18.3175C90.0583 20.3615 89.3102 22.133 91.2896 22.8046C93.5165 23.5614 93.665 22.1392 94.4422 19.9227C96.0869 15.2319 97.7898 10.2022 99.4491 5.17244C100.215 2.85198 100.392 1.62314 98.5904 1.2863Z" fill="white"/>
<path d="M57.8719 13.5575C56.8386 13.3163 56.1341 14.0378 55.712 14.8445C54.0673 17.9634 52.5303 21.1301 51.0865 24.3239C50.4956 25.6297 49.8435 26.7504 51.1854 27.266C52.6991 27.8462 52.9058 26.9271 53.6103 25.5153C55.1065 22.5295 56.6668 19.3253 58.198 16.1191C58.9024 14.6408 59.1178 13.8486 57.8719 13.5575Z" fill="white"/>
<path d="M52.2303 8.83166C50.8855 8.64868 50.0966 9.40969 49.6716 10.2352C48.024 13.4372 46.519 16.6788 45.1363 19.9453C44.5716 21.2802 43.902 22.4342 45.6748 22.8729C47.6747 23.3657 47.8086 22.4384 48.5043 20.9912C49.9802 17.9305 51.5084 14.6474 52.9988 11.3663C53.6887 9.85466 53.8488 9.05206 52.2303 8.83166Z" fill="white"/>
<path d="M47.1012 23.8315C46.5685 23.8315 46.1348 24.1414 46.1348 24.5219C46.1348 24.9024 46.5685 25.2122 47.1012 25.2122C47.6339 25.2122 48.0677 24.9024 48.0677 24.5219C48.0677 24.1393 47.6339 23.8315 47.1012 23.8315Z" fill="white"/>
<path d="M44.0183 23.8315C43.4856 23.8315 43.0519 24.1414 43.0519 24.5219C43.0519 24.9024 43.4856 25.2122 44.0183 25.2122C44.551 25.2122 44.9848 24.9024 44.9848 24.5219C44.9848 24.1393 44.5539 23.8315 44.0183 23.8315Z" fill="white"/>
<path d="M44.2952 8.83166C42.9503 8.64868 42.1614 9.40969 41.7364 10.2352C40.0888 13.4372 38.5838 16.6788 37.2011 19.9453C36.6364 21.2802 35.9669 22.4342 37.7396 22.8729C39.7395 23.3657 39.8734 22.4384 40.5691 20.9912C42.045 17.9305 43.5732 14.6474 45.0637 11.3663C45.7536 9.85466 45.9107 9.05206 44.2952 8.83166Z" fill="white"/>
<path d="M38.5807 1.2863C37.0816 1.0056 36.2024 2.17206 35.728 3.43833C33.8941 8.34539 32.2173 13.3148 30.6774 18.3175C30.0487 20.3615 29.3005 22.133 31.28 22.8046C33.5069 23.5614 33.6553 22.1392 34.4326 19.9227C36.0773 15.2319 37.7802 10.2022 39.4394 5.17244C40.205 2.85198 40.3826 1.62314 38.5807 1.2863Z" fill="white"/>
<path d="M67.0677 5.68591C67.0677 6.06642 67.5015 6.37623 68.0342 6.37623C68.5669 6.37623 69.0006 6.06642 69.0006 5.68591C69.0006 5.3054 68.5669 4.99561 68.0342 4.99561C67.4986 4.99561 67.0677 5.3054 67.0677 5.68591Z" fill="white"/>
<path d="M63.9847 5.68591C63.9847 6.06642 64.4185 6.37623 64.9512 6.37623C65.4839 6.37623 65.9176 6.06642 65.9176 5.68591C65.9176 5.3054 65.4839 4.99561 64.9512 4.99561C64.4185 4.99561 63.9847 5.3054 63.9847 5.68591Z" fill="white"/>
<path d="M64.3223 2.18215C64.7502 2.09274 65.1432 1.99709 65.4837 1.90353C65.6438 1.85986 65.7894 1.8162 65.9204 1.77461L70.2024 0.502105L70.3189 0.466761C70.872 0.30042 71.2096 0.148633 71.1747 0.0633831C71.1165 -0.0800861 69.9928 0.028032 68.6654 0.306653C68.3336 0.375269 68.0192 0.450131 67.7368 0.522905H67.7339C67.4021 0.608155 67.1401 0.693396 66.8868 0.774488C66.0485 1.04687 64.1243 1.61243 63.1142 1.89521C62.8493 1.97007 62.5873 2.04284 62.3865 2.11145C62.0022 2.24245 61.7839 2.35473 61.813 2.42334C61.8712 2.56681 62.9949 2.45869 64.3223 2.18215Z" fill="white"/>
<path d="M7.11197 40.6531C7.20521 40.6531 7.35051 40.6444 7.54784 40.6249C7.74517 40.6054 7.89046 40.5967 7.98371 40.5967C9.70983 40.5967 11.321 41.1128 12.8129 42.145C14.3049 43.1772 15.1354 44.5021 15.3045 46.1155L2.99834 46.1719C2.92244 46.8116 2.88558 47.345 2.88558 47.7766C2.88558 50.6672 3.73997 52.6947 5.44874 53.8592C6.44408 54.4794 7.48495 54.7895 8.5757 54.7895C9.6838 54.7895 10.7637 54.4837 11.8154 53.8744C12.8671 53.265 13.6825 52.4627 14.2658 51.4673C14.2853 51.4305 14.5759 50.7626 15.1397 49.468L15.5626 49.8908C15.2612 50.9794 14.7494 51.9509 14.0273 52.8053C13.3052 53.6597 12.4269 54.3211 11.3947 54.7916L8.8034 55.44H8.32416C6.559 55.44 4.99986 55.0128 3.64889 54.1584C2.29792 53.304 1.33944 52.0702 0.775635 50.4547C0.493731 49.2902 0.352783 48.4748 0.352783 48.0042C0.352783 46.8398 0.634686 45.7187 1.19849 44.6388C1.7623 43.5589 2.56031 42.6437 3.59251 41.8934C4.77434 41.1974 5.94749 40.7853 7.11197 40.6531ZM7.28111 41.1887C6.17301 41.321 5.25358 41.8045 4.52063 42.6394C3.78767 43.4743 3.35614 44.4566 3.22604 45.5821H12.5484V45.131C12.5484 43.9665 12.0843 43.0189 11.154 42.2859C10.2238 41.553 9.15036 41.1865 7.9295 41.1865H7.28111V41.1887Z" fill="white"/>
<path d="M26.2338 40.7379C27.266 40.9071 28.2895 41.2171 29.3043 41.6682C29.2848 42.3252 29.0419 43.1796 28.5714 44.2314C28.1962 43.3119 27.511 42.5551 26.5157 41.9653C25.5203 41.3733 24.4881 41.0784 23.4169 41.0784C22.0269 41.0784 20.9578 41.5099 20.2053 42.3729C19.7348 42.9736 19.5006 43.5938 19.5006 44.2314C19.5006 44.9817 19.9039 45.63 20.7106 46.1743C22.6622 46.7381 24.5879 47.0569 26.4831 47.1328C27.498 47.1892 28.3459 47.5752 29.0311 48.2886C29.7163 49.002 30.059 49.8282 30.059 50.7672C30.059 51.292 29.9375 51.8189 29.6925 52.3437C28.3784 54.4102 26.134 55.4425 22.9615 55.4425C22.4367 55.4425 21.7038 55.4056 20.7648 55.3297C18.6614 55.1042 17.1781 54.6726 16.3151 54.0351L17.3017 51.4156C17.846 53.274 19.4984 54.4103 22.2589 54.8223L25.0476 54.7377C25.7805 54.6249 26.4658 54.2411 27.1033 53.5841C27.7408 52.927 28.0618 52.2417 28.0618 51.5283C28.0618 50.8908 27.8081 50.3465 27.3006 49.8955C26.906 49.5962 26.3704 49.3794 25.696 49.2471L21.1898 48.5987C20.175 48.3732 19.2989 47.9373 18.5573 47.2889C17.8157 46.6405 17.4449 45.8664 17.4449 44.9665C17.4449 44.741 17.5207 44.3658 17.6704 43.8388C17.9523 43.0495 18.4402 42.4077 19.1341 41.9089C19.828 41.4123 20.574 41.0697 21.372 40.881C22.17 40.6945 23.0287 40.5991 23.9482 40.5991C24.2474 40.5991 24.6703 40.623 25.2146 40.6685C25.7654 40.7141 26.1036 40.7379 26.2338 40.7379Z" fill="white"/>
<path d="M34.6281 35.4424V44.3701C34.9664 43.2056 35.6885 42.2861 36.7966 41.6096C37.9047 40.933 39.106 40.5969 40.4006 40.5969C41.4892 40.5969 42.4997 40.8354 43.4278 41.3147C44.3581 41.7939 45.0477 42.4922 45.4987 43.4116C45.8544 44.4264 46.0517 45.309 46.0907 46.0593V53.5797C46.184 53.8811 46.3531 54.1673 46.5982 54.4384C46.841 54.7116 47.1056 54.8938 47.3875 54.987L42.5149 55.0434C43.1915 54.7051 43.6122 54.1977 43.7813 53.5233C43.9873 51.2897 44.0914 49.7024 44.0914 48.7634C44.0914 46.7554 43.8377 44.9903 43.3303 43.468C42.9551 42.8109 42.4195 42.2948 41.7256 41.9197C41.0316 41.5445 40.3074 41.3559 39.5571 41.3559C38.4316 41.3559 37.51 41.6746 36.7966 42.3143C36.2328 42.8781 35.8099 43.3834 35.5302 43.8345C34.8927 45.2049 34.5717 46.905 34.5717 48.9326C34.5717 49.44 34.6758 50.8864 34.8818 53.2695C34.8818 54.0957 35.2851 54.6487 36.0918 54.9306L36.0354 55.0998L31.1628 55.0434V54.8179C31.3125 54.8005 31.5575 54.7159 31.8958 54.5641C32.3468 54.0394 32.6006 53.5124 32.6569 52.9877V38.0337C32.6569 37.509 32.4791 37.0948 32.1213 36.7955C32.0086 36.7587 31.7917 36.6654 31.4729 36.5136L31.4447 36.4572C31.4252 36.4204 31.4166 36.3922 31.4166 36.3727L34.6281 35.4424Z" fill="white"/>
<path d="M52.4811 37.6675L52.5939 37.893V41.6662H55.298L55.0725 42.3709L52.5939 42.4273V51.7497C52.7066 52.6322 53.1013 53.5148 53.7757 54.3974C54.2441 54.6424 54.5737 54.7834 54.7624 54.8202L54.6496 55.0458C54.1791 55.1585 53.6543 55.2149 53.0731 55.2149C52.5657 55.2149 52.0583 55.1585 51.553 55.0458L51.1302 54.7921C50.7724 54.1914 50.5945 53.5907 50.5945 52.9901V42.4295L48.5388 42.3731V42.063C50.2845 41.4797 51.5986 40.016 52.4811 37.6675Z" fill="white"/>
<path d="M61.9727 40.5967H62.8748C63.6251 40.5967 64.3667 40.6726 65.0996 40.8222C65.8326 40.9718 66.5395 41.2082 67.2269 41.527C67.9122 41.8457 68.4608 42.3011 68.875 42.8931C69.287 43.4851 69.4952 44.1747 69.4952 44.964C69.3824 47.048 69.326 48.0997 69.326 48.1192C69.326 49.5829 69.4561 51.3004 69.7207 53.2737C69.7944 53.9112 70.1522 54.5228 70.7898 55.1039H68.1984C67.7669 54.2018 67.55 53.3387 67.55 52.5125C66.9862 53.471 66.2208 54.1975 65.2558 54.6962C64.2886 55.1928 63.2239 55.4422 62.0594 55.4422L59.3553 54.9348C58.3968 54.6919 57.6097 54.217 56.9895 53.5122C56.3693 52.8075 56.0592 52.0246 56.0592 51.1616C56.0592 50.4677 56.3129 49.7434 56.8203 48.9931C58.2667 47.2843 60.9231 46.4299 64.7895 46.4299C65.0714 46.4299 65.5225 46.4386 66.1405 46.4581C66.7607 46.4776 67.1922 46.4863 67.4351 46.4863C67.3982 45.2654 67.2378 44.2333 66.9559 43.3875C66.674 42.5418 66.1102 41.913 65.2666 41.501C64.5337 41.1453 63.7357 40.9653 62.8726 40.9653C61.7472 40.9653 60.6998 41.2884 59.7326 41.9368C58.7655 42.5852 58.0846 43.4352 57.6899 44.4848L56.8724 42.0626L56.9288 41.8371C58.6592 41.141 60.3398 40.729 61.9727 40.5967ZM67.2681 47.074H65.6353C61.372 47.074 59.0626 48.323 58.7069 50.819C58.7069 50.8949 58.6874 51.0163 58.6505 51.1854C58.6137 51.3546 58.5942 51.4673 58.5942 51.5237C58.5942 52.5386 59.0062 53.3409 59.8324 53.9307C60.6586 54.5227 61.6149 54.8177 62.7056 54.8177C62.9311 54.8177 63.3714 54.7721 64.0284 54.6767C64.5532 54.5076 65.0519 54.2734 65.5203 53.9719C66.5916 53.2216 67.2291 52.0658 67.4351 50.5089V47.3537L67.2681 47.074Z" fill="white"/>
<path d="M80.5305 40.8508L79.6003 43.4139C79.2425 43.0388 78.7936 42.8501 78.2493 42.8501C77.7982 42.8501 77.3711 43.0041 76.9677 43.3142C76.5644 43.6242 76.2499 44.0319 76.0244 44.5393C75.517 45.6106 75.2546 46.1722 75.2351 46.2286V52.283C75.2351 52.8642 75.3522 53.4042 75.5864 53.9029C75.8206 54.3995 76.1914 54.7052 76.6988 54.818H76.9525L76.8961 55.0999H71.6007L71.5443 54.8744C71.9195 54.8007 72.21 54.6966 72.4182 54.5643C72.8129 54.0395 73.0753 53.1179 73.2075 51.8038V43.4117C73.2075 43.3554 73.2032 43.2534 73.1945 43.1016C73.1859 42.952 73.1793 42.8588 73.1793 42.8197C72.9343 42.3318 72.4746 42.0217 71.8002 41.8895L75.2915 40.9592V44.4223C75.723 43.5028 76.3844 42.6766 77.2778 41.9437C78.1691 41.2107 79.095 40.8442 80.0513 40.8442H80.5305V40.8508Z" fill="white"/>
<path d="M88.2765 40.6531C88.3698 40.6531 88.5151 40.6444 88.7124 40.6249C88.9097 40.6054 89.055 40.5967 89.1483 40.5967C90.8744 40.5967 92.4856 41.1128 93.9775 42.145C95.4694 43.1772 96.2999 44.5021 96.4691 46.1155L84.1629 46.1719C84.087 46.8116 84.0501 47.345 84.0501 47.7766C84.0501 50.6672 84.9045 52.6947 86.6133 53.8592C87.6086 54.4794 88.6495 54.7895 89.7403 54.7895C90.8484 54.7895 91.9261 54.4837 92.98 53.8744C94.0317 53.265 94.8471 52.4627 95.4304 51.4673C95.4477 51.4305 95.7405 50.7626 96.3043 49.468L96.7271 49.8908C96.4257 50.9794 95.914 51.9509 95.1918 52.8053C94.4697 53.6597 93.5915 54.3211 92.5593 54.7916L89.968 55.44H89.4887C87.7236 55.44 86.1644 55.0128 84.8134 54.1584C83.4625 53.304 82.504 52.0702 81.9402 50.4547C81.6583 49.2902 81.5173 48.4748 81.5173 48.0042C81.5173 46.8398 81.7992 45.7187 82.3631 44.6388C82.9269 43.5589 83.7249 42.6437 84.7571 41.8934C85.9389 41.1974 87.1121 40.7853 88.2765 40.6531ZM88.4457 41.1887C87.3376 41.321 86.4181 41.8045 85.6852 42.6394C84.9522 43.4743 84.5207 44.4566 84.3906 45.5821H93.7129V45.131C93.7129 43.9665 93.2489 43.0189 92.3186 42.2859C91.3883 41.553 90.3149 41.1865 89.094 41.1865H88.4457V41.1887Z" fill="white"/>
<path d="M106.863 40.5967C108.233 40.5967 109.458 40.9632 110.538 41.6939C111.618 42.4269 112.271 43.4309 112.496 44.7081C112.702 48.143 112.806 50.472 112.806 51.6929V53.5795C113.012 54.217 113.444 54.7244 114.101 55.0996H109.116C109.885 54.6312 110.354 53.8332 110.523 52.7055C110.597 51.4283 110.636 50.4243 110.636 49.6913C110.636 48.0585 110.532 46.3584 110.326 44.5932C110.157 43.5784 109.682 42.7869 108.903 42.2144C108.125 41.6419 107.238 41.3557 106.242 41.3557C105.041 41.3557 103.998 41.7698 103.115 42.5939C101.858 44.114 101.229 46.3107 101.229 49.1839C101.229 50.0101 101.313 51.3719 101.483 53.2672C101.539 53.9437 101.923 54.4967 102.638 54.9283C102.656 54.9478 102.682 54.976 102.708 55.0128C102.736 55.0497 102.76 55.0779 102.779 55.0974H97.7657C98.7979 54.4403 99.3141 53.5014 99.3141 52.2805V43.7193C99.3141 43.6456 99.2902 43.5046 99.2447 43.2965C99.197 43.0904 99.1731 42.9582 99.1731 42.9018C98.8912 42.4898 98.5442 42.1688 98.1322 41.9433L98.1886 41.6614L101.316 40.9567V44.4761C101.691 43.2553 102.38 42.3033 103.384 41.618C104.388 40.9393 105.548 40.5967 106.863 40.5967Z" fill="white"/>
<path d="M120.832 40.5967H121.734C122.484 40.5967 123.226 40.6726 123.959 40.8222C124.692 40.9718 125.399 41.2082 126.084 41.527C126.769 41.8457 127.318 42.3011 127.732 42.8931C128.144 43.4851 128.352 44.1747 128.352 44.964C128.24 47.048 128.183 48.0997 128.183 48.1192C128.183 49.5829 128.313 51.3004 128.578 53.2737C128.652 53.9112 129.009 54.5228 129.647 55.1039H127.056C126.624 54.2018 126.407 53.3387 126.407 52.5125C125.843 53.471 125.078 54.1975 124.113 54.6962C123.146 55.1928 122.081 55.4422 120.917 55.4422L118.212 54.9348C117.254 54.6919 116.467 54.217 115.847 53.5122C115.226 52.8075 114.916 52.0246 114.916 51.1616C114.916 50.4677 115.17 49.7434 115.678 48.9931C117.124 47.2843 119.78 46.4299 123.647 46.4299C123.929 46.4299 124.38 46.4386 124.998 46.4581C125.618 46.4776 126.049 46.4863 126.292 46.4863C126.255 45.2654 126.095 44.2333 125.813 43.3875C125.531 42.5418 124.967 41.913 124.124 41.501C123.391 41.1453 122.593 40.9653 121.73 40.9653C120.604 40.9653 119.557 41.2884 118.59 41.9368C117.623 42.5852 116.942 43.4352 116.547 44.4848L115.73 42.0626L115.786 41.8371C117.516 41.141 119.197 40.729 120.832 40.5967ZM126.125 47.074H124.492C120.229 47.074 117.922 48.323 117.564 50.819C117.564 50.8949 117.545 51.0163 117.508 51.1854C117.471 51.3546 117.451 51.4673 117.451 51.5237C117.451 52.5386 117.863 53.3409 118.69 53.9307C119.516 54.5227 120.472 54.8177 121.563 54.8177C121.788 54.8177 122.229 54.7721 122.886 54.6767C123.41 54.5076 123.909 54.2734 124.378 53.9719C125.449 53.2216 126.086 52.0658 126.292 50.5089V47.3537L126.125 47.074Z" fill="white"/>
</svg>
