<svg width="167" height="50" viewBox="0 0 167 50" fill="none" xmlns="http://www.w3.org/2000/svg">
<path d="M165.356 43.3034C165.356 43.9213 165.234 44.5332 164.996 45.1041C164.758 45.675 164.41 46.1936 163.971 46.6304C163.531 47.0671 163.01 47.4134 162.436 47.6494C161.862 47.8855 161.247 48.0066 160.626 48.006H5.83387C4.57927 48.0073 3.37552 47.5126 2.48734 46.6307C1.59916 45.7488 1.09929 44.552 1.09766 43.3034V5.80153C1.09929 4.55234 1.59897 3.35485 2.48697 2.472C3.37497 1.58915 4.5787 1.0931 5.83387 1.09277H160.625C161.246 1.09277 161.862 1.21458 162.435 1.45123C163.009 1.68788 163.531 2.03475 163.97 2.47201C164.409 2.90927 164.758 3.42837 164.995 3.99966C165.233 4.57094 165.355 5.18322 165.355 5.80153L165.356 43.3034Z" fill="white"/>
<path d="M160.627 49.1H5.83422C4.28869 49.0997 2.80642 48.4892 1.71265 47.4024C0.618874 46.3157 0.00294071 44.8415 0 43.3034L0 5.80276C0.00228638 4.26383 0.617813 2.78864 1.71155 1.7008C2.80529 0.612959 4.28793 0.00129891 5.83422 0L160.625 0C162.172 0.00194704 163.654 0.613815 164.747 1.70152C165.841 2.78922 166.457 4.26403 166.46 5.80276V43.3034C166.462 46.5007 163.84 49.1 160.627 49.1Z" fill="#A6A6A6"/>
<path d="M165.356 43.3034C165.356 43.9213 165.234 44.5332 164.996 45.1041C164.758 45.675 164.41 46.1936 163.971 46.6304C163.531 47.0671 163.01 47.4134 162.436 47.6494C161.862 47.8855 161.247 48.0066 160.626 48.006H5.83387C4.57927 48.0073 3.37552 47.5126 2.48734 46.6307C1.59916 45.7488 1.09929 44.552 1.09766 43.3034V5.80153C1.09929 4.55234 1.59897 3.35485 2.48697 2.472C3.37497 1.58915 4.5787 1.0931 5.83387 1.09277H160.625C161.246 1.09277 161.862 1.21458 162.435 1.45123C163.009 1.68788 163.531 2.03475 163.97 2.47201C164.409 2.90927 164.758 3.42837 164.995 3.99966C165.233 4.57094 165.355 5.18322 165.355 5.80153L165.356 43.3034Z" fill="black"/>
<path d="M37.169 24.2919C37.1332 20.3345 40.4247 18.4093 40.5752 18.3197C38.7111 15.6147 35.8218 15.2452 34.8064 15.2157C32.3797 14.9615 30.0258 16.6608 28.7896 16.6608C27.5288 16.6608 25.6251 15.2402 23.5735 15.282C20.9333 15.3225 18.4635 16.8438 17.1088 19.2062C14.3133 24.023 16.3982 31.1014 19.0766 34.9949C20.4164 36.903 21.982 39.0308 24.0312 38.9559C26.036 38.8749 26.7848 37.6851 29.2041 37.6851C31.6012 37.6851 32.3045 38.9559 34.3944 38.908C36.5459 38.8749 37.9006 36.9926 39.1935 35.0686C40.7418 32.8843 41.3636 30.7306 41.3883 30.6201C41.3389 30.6029 37.2109 29.0338 37.169 24.2919ZM33.2211 12.6544C34.2994 11.3124 35.0371 9.4866 34.8323 7.63379C33.2717 7.70255 31.32 8.70815 30.196 10.0207C29.2017 11.1773 28.3134 13.0731 28.5429 14.8559C30.296 14.9861 32.096 13.9756 33.2211 12.6544Z" fill="white"/>
<path d="M160.626 0H77.7148L110.19 49.1H160.626C162.172 49.0987 163.654 48.4874 164.748 47.4001C165.842 46.3127 166.458 44.8382 166.461 43.2997V5.80276C166.458 4.26393 165.842 2.78893 164.749 1.70116C163.655 0.613387 162.173 0.0016231 160.626 0Z" fill="url(#paint0_linear_3502_55307)"/>
<path d="M66.2064 38.6816H63.4047L61.8699 33.8819H56.5354L55.0734 38.6816H52.3457L57.6322 22.3415H60.8965L66.2064 38.6816ZM61.4073 31.8683L60.0194 27.6015C59.8726 27.1657 59.5962 26.1392 59.1916 24.5234H59.1422C58.9794 25.2183 58.719 26.2448 58.3625 27.6015L56.998 31.8683H61.4073ZM79.7748 32.6455C79.7748 34.6493 79.2283 36.2332 78.134 37.396C77.1544 38.4311 75.9367 38.948 74.4846 38.948C72.9166 38.948 71.789 38.3918 71.1043 37.2769V43.4591H68.474V30.7718C68.474 29.5133 68.4407 28.2228 68.3765 26.8992H70.6897L70.8366 28.7668H70.8859C71.7631 27.3597 73.0942 26.6561 74.8807 26.6561C76.2772 26.6561 77.4431 27.205 78.3758 28.3039C79.3072 29.4052 79.7748 30.8516 79.7748 32.6455ZM77.0952 32.7413C77.0952 31.5945 76.8361 30.649 76.3155 29.9037C75.7467 29.129 74.9831 28.741 74.0257 28.741C73.3768 28.741 72.787 28.9571 72.2603 29.3831C71.7322 29.8129 71.3868 30.374 71.2252 31.069C71.153 31.3289 71.112 31.5963 71.103 31.8658V33.8316C71.103 34.6874 71.3671 35.4106 71.8951 36.0024C72.4231 36.5918 73.109 36.8877 73.9529 36.8877C74.9436 36.8877 75.7146 36.5058 76.2661 35.7482C76.8188 34.9882 77.0952 33.9863 77.0952 32.7413ZM93.3912 32.6455C93.3912 34.6493 92.8447 36.2332 91.7504 37.396C90.7696 38.4311 89.5532 38.948 88.0999 38.948C86.5318 38.948 85.4042 38.3918 84.7195 37.2769V43.4591H82.0892V30.7718C82.0892 29.5133 82.0559 28.2228 81.9918 26.8992H84.305L84.4518 28.7668H84.5011C85.3771 27.3597 86.7082 26.6561 88.4959 26.6561C89.8912 26.6561 91.0571 27.205 91.9922 28.3039C92.9224 29.4052 93.3912 30.8516 93.3912 32.6455ZM90.7104 32.7413C90.7104 31.5945 90.4501 30.649 89.9295 29.9037C89.3607 29.129 88.5995 28.741 87.6422 28.741C86.9932 28.741 86.4035 28.9571 85.8743 29.3831C85.3462 29.8129 85.002 30.374 84.8404 31.069C84.7602 31.3931 84.717 31.6571 84.717 31.8658V33.8316C84.717 34.6874 84.9823 35.4106 85.5078 36.0024C86.0359 36.5905 86.7218 36.8877 87.5681 36.8877C88.56 36.8877 89.3311 36.5058 89.8813 35.7482C90.434 34.9882 90.7104 33.9863 90.7104 32.7413ZM108.615 34.098C108.615 35.4892 108.127 36.62 107.156 37.493C106.087 38.4458 104.596 38.9234 102.684 38.9234C100.917 38.9234 99.5006 38.5846 98.4322 37.9056L99.0404 35.7237C100.194 36.4039 101.461 36.7428 102.84 36.7428C103.832 36.7428 104.603 36.5193 105.153 36.0761C105.705 35.6316 105.984 35.0373 105.984 34.2957C105.984 33.6315 105.753 33.0752 105.3 32.6222C104.845 32.1703 104.092 31.7492 103.035 31.3624C100.161 30.2954 98.7221 28.7348 98.7221 26.6819C98.7221 25.3411 99.2304 24.2434 100.245 23.3852C101.259 22.5281 102.603 22.0996 104.276 22.0996C105.77 22.0996 107.015 22.3587 108.003 22.8756L107.343 25.0096C106.413 24.5086 105.363 24.2581 104.189 24.2581C103.261 24.2581 102.533 24.4853 102.012 24.9371C101.574 25.3411 101.352 25.8335 101.352 26.4179C101.352 27.0625 101.605 27.5979 102.109 28.0178C102.545 28.4046 103.342 28.8257 104.495 29.2775C105.908 29.8448 106.947 30.5054 107.612 31.2642C108.282 32.023 108.615 32.9697 108.615 34.098ZM117.334 28.8638H114.435V34.5843C114.435 36.0392 114.945 36.7649 115.969 36.7649C116.439 36.7649 116.829 36.7256 117.138 36.6433L117.211 38.6312C116.692 38.824 116.01 38.921 115.165 38.921C114.126 38.921 113.314 38.6054 112.728 37.9743C112.145 37.3432 111.851 36.286 111.851 34.7979V28.8589H110.124V26.8943H111.851V24.737L114.435 23.961V26.8943H117.334V28.8638ZM130.389 32.6934C130.389 34.5044 129.868 35.9914 128.83 37.1541C127.743 38.3513 126.297 38.948 124.494 38.948C122.755 38.948 121.372 38.3746 120.34 37.229C119.309 36.081 118.793 34.6346 118.793 32.8898C118.793 31.064 119.326 29.5685 120.389 28.4058C121.453 27.2418 122.887 26.6598 124.689 26.6598C126.426 26.6598 127.822 27.2344 128.878 28.3812C129.887 29.4936 130.389 30.9302 130.389 32.6934ZM127.662 32.7536C127.662 31.6743 127.428 30.7485 126.958 29.9737C126.407 29.0381 125.617 28.5703 124.594 28.5703C123.541 28.5703 122.733 29.0381 122.182 29.9737C121.711 30.7485 121.477 31.6902 121.477 32.8027C121.477 33.8832 121.711 34.8114 122.182 35.5837C122.751 36.5193 123.544 36.9871 124.572 36.9871C125.578 36.9871 126.366 36.5095 126.936 35.5604C127.419 34.7672 127.662 33.8353 127.662 32.7536ZM138.942 29.2014C138.669 29.1523 138.391 29.128 138.113 29.129C137.188 29.129 136.472 29.4752 135.969 30.1726C135.532 30.7866 135.313 31.5626 135.313 32.4994V38.6816H132.682V30.6097C132.685 29.3729 132.659 28.1362 132.606 26.9005H134.897L134.993 29.1548H135.066C135.345 28.38 135.782 27.755 136.381 27.2872C136.93 26.8784 137.597 26.6571 138.282 26.6561C138.525 26.6561 138.745 26.6733 138.94 26.704L138.942 29.2014ZM150.706 32.233C150.712 32.6309 150.68 33.0285 150.61 33.4203H142.719C142.748 34.5843 143.131 35.4757 143.864 36.0896C144.529 36.6372 145.388 36.9122 146.445 36.9122C147.613 36.9122 148.679 36.7281 149.637 36.356L150.049 38.172C148.929 38.6582 147.607 38.9001 146.081 38.9001C144.245 38.9001 142.804 38.3623 141.755 37.2892C140.709 36.2148 140.185 34.7709 140.185 32.9623C140.185 31.1868 140.672 29.7073 141.648 28.5273C142.669 27.2676 144.05 26.6377 145.787 26.6377C147.493 26.6377 148.785 27.2676 149.662 28.5273C150.357 29.5256 150.706 30.7632 150.706 32.233ZM148.198 31.554C148.216 30.7767 148.043 30.1076 147.687 29.5415C147.232 28.8122 146.531 28.4488 145.592 28.4488C144.732 28.4488 144.031 28.8036 143.498 29.5157C143.06 30.0818 142.8 30.762 142.72 31.5515L148.198 31.554Z" fill="white"/>
<path d="M55.778 16.5646C55.0464 16.5646 54.4135 16.529 53.8867 16.4689V8.56896C54.6235 8.45568 55.368 8.39985 56.1136 8.40197C59.13 8.40197 60.5191 9.87906 60.5191 12.2868C60.5191 15.0642 58.8783 16.5646 55.778 16.5646ZM56.2197 9.41494C55.8125 9.41494 55.4659 9.43949 55.1784 9.49843V15.5038C55.3339 15.5283 55.6324 15.5394 56.0519 15.5394C58.0283 15.5394 59.1534 14.4196 59.1534 12.3225C59.1534 10.4525 58.1356 9.41494 56.2197 9.41494ZM64.8482 16.6248C63.1482 16.6248 62.0465 15.3614 62.0465 13.6461C62.0465 11.8583 63.1716 10.5838 64.9445 10.5838C66.6198 10.5838 67.7462 11.7871 67.7462 13.5515C67.7462 15.3614 66.5853 16.6248 64.8482 16.6248ZM64.8976 11.5244C63.9637 11.5244 63.3653 12.3937 63.3653 13.6092C63.3653 14.8015 63.976 15.6708 64.8852 15.6708C65.7945 15.6708 66.4052 14.7413 66.4052 13.5847C66.4052 12.4059 65.8068 11.5244 64.8976 11.5244ZM77.4407 10.7029L75.621 16.4934H74.4354L73.6816 13.9788C73.4942 13.3637 73.3381 12.7396 73.214 12.1088H73.1893C73.0944 12.7399 72.9142 13.3723 72.723 13.9788L71.9211 16.4934H70.7232L69.0108 10.7029H70.3395L70.9983 13.4557C71.1537 14.1114 71.2845 14.7302 71.3931 15.3147H71.4177C71.5127 14.8272 71.6682 14.2182 71.8964 13.468L72.723 10.7042H73.7766L74.5674 13.4091C74.7586 14.0648 74.9141 14.7081 75.035 15.3159H75.0695C75.1534 14.7204 75.2854 14.0881 75.4643 13.4091L76.1712 10.7042L77.4407 10.7029ZM84.1398 16.4934H82.8468V13.1684C82.8468 12.1444 82.452 11.6312 81.6736 11.6312C80.9074 11.6312 80.3806 12.2868 80.3806 13.0493V16.4934H79.0877V12.3581C79.0877 11.8461 79.0754 11.2972 79.0396 10.7017H80.1771L80.2375 11.5956H80.2733C80.6212 10.9767 81.3269 10.5838 82.1177 10.5838C83.3391 10.5838 84.141 11.5133 84.141 13.026L84.1398 16.4934ZM87.7052 16.4934H86.411V8.0459H87.7052V16.4934ZM92.4192 16.6248C90.7204 16.6248 89.6174 15.3614 89.6174 13.6461C89.6174 11.8583 90.7426 10.5838 92.5142 10.5838C94.1908 10.5838 95.3159 11.7871 95.3159 13.5515C95.3172 15.3614 94.155 16.6248 92.4192 16.6248ZM92.4673 11.5244C91.5334 11.5244 90.935 12.3937 90.935 13.6092C90.935 14.8015 91.547 15.6708 92.4537 15.6708C93.3642 15.6708 93.9737 14.7413 93.9737 13.5847C93.9749 12.4059 93.3778 11.5244 92.4673 11.5244ZM100.414 16.4934L100.32 15.8267H100.285C99.8905 16.3633 99.3144 16.6248 98.584 16.6248C97.5415 16.6248 96.8013 15.8979 96.8013 14.9206C96.8013 13.4914 98.0461 12.7522 100.201 12.7522V12.6454C100.201 11.8829 99.7955 11.501 98.9936 11.501C98.4199 11.501 97.9166 11.6447 97.4737 11.9308L97.2109 11.0848C97.7488 10.7508 98.42 10.5838 99.2083 10.5838C100.728 10.5838 101.496 11.3819 101.496 12.9793V15.1121C101.496 15.6966 101.521 16.1496 101.579 16.4946L100.414 16.4934ZM100.236 13.6092C98.7999 13.6092 98.0794 13.9555 98.0794 14.7769C98.0794 15.3847 98.4508 15.6818 98.9665 15.6818C99.6241 15.6818 100.236 15.1821 100.236 14.5031V13.6092ZM107.774 16.4934L107.713 15.5639H107.678C107.306 16.2663 106.682 16.6248 105.81 16.6248C104.407 16.6248 103.368 15.397 103.368 13.6694C103.368 11.8583 104.445 10.5826 105.916 10.5826C106.694 10.5826 107.246 10.8441 107.557 11.3697H107.583V8.0459H108.877V14.9328C108.877 15.4927 108.89 16.017 108.925 16.4934H107.774ZM107.583 13.0862C107.583 12.2758 107.044 11.5845 106.221 11.5845C105.262 11.5845 104.676 12.4305 104.676 13.6215C104.676 14.7892 105.284 15.5885 106.195 15.5885C107.008 15.5885 107.583 14.885 107.583 14.0513V13.0862ZM117.082 16.6248C115.383 16.6248 114.282 15.3614 114.282 13.6461C114.282 11.8583 115.407 10.5838 117.179 10.5838C118.855 10.5838 119.98 11.7871 119.98 13.5515C119.982 15.3614 118.821 16.6248 117.082 16.6248ZM117.13 11.5244C116.198 11.5244 115.599 12.3937 115.599 13.6092C115.599 14.8015 116.21 15.6708 117.118 15.6708C118.029 15.6708 118.638 14.7413 118.638 13.5847C118.64 12.4059 118.042 11.5244 117.13 11.5244ZM126.933 16.4934H125.639V13.1684C125.639 12.1444 125.245 11.6312 124.466 11.6312C123.7 11.6312 123.174 12.2868 123.174 13.0493V16.4934H121.88V12.3581C121.88 11.8461 121.868 11.2972 121.832 10.7017H122.97L123.03 11.5956H123.066C123.412 10.9767 124.119 10.5826 124.909 10.5826C126.13 10.5826 126.933 11.5121 126.933 13.0248V16.4934ZM135.632 11.668H134.21V14.4798C134.21 15.1956 134.459 15.5529 134.962 15.5529C135.191 15.5529 135.382 15.5283 135.536 15.4927L135.572 16.4701C135.321 16.5659 134.986 16.6137 134.569 16.6137C133.55 16.6137 132.94 16.0539 132.94 14.5878V11.668H132.092V10.7029H132.94V9.64209L134.21 9.26023V10.7017H135.632V11.668ZM142.477 16.4934H141.185V13.193C141.185 12.1567 140.792 11.6324 140.012 11.6324C139.342 11.6324 138.718 12.0855 138.718 13.0027V16.4934H137.426V8.0459H138.718V11.5244H138.744C139.151 10.8933 139.741 10.5826 140.493 10.5826C141.724 10.5826 142.477 11.5354 142.477 13.0493V16.4934ZM149.489 13.9076H145.609C145.634 15.0041 146.363 15.6229 147.443 15.6229C148.016 15.6229 148.544 15.5271 149.011 15.3491L149.212 16.2429C148.662 16.4811 148.014 16.6002 147.26 16.6002C145.44 16.6002 144.363 15.4559 144.363 13.6817C144.363 11.9062 145.466 10.5716 147.114 10.5716C148.601 10.5716 149.534 11.668 149.534 13.3244C149.542 13.5198 149.527 13.7156 149.489 13.9076ZM148.304 12.9904C148.304 12.0965 147.851 11.4654 147.024 11.4654C146.282 11.4654 145.694 12.1088 145.611 12.9904H148.304Z" fill="white"/>
<defs>
<linearGradient id="paint0_linear_3502_55307" x1="122.086" y1="49.2303" x2="122.086" y2="-127.848" gradientUnits="userSpaceOnUse">
<stop stop-color="#1A1A1A" stop-opacity="0.1"/>
<stop offset="0.123" stop-color="#212121" stop-opacity="0.151"/>
<stop offset="0.308" stop-color="#353535" stop-opacity="0.227"/>
<stop offset="0.532" stop-color="#575757" stop-opacity="0.318"/>
<stop offset="0.783" stop-color="#858585" stop-opacity="0.421"/>
<stop offset="1" stop-color="#B3B3B3" stop-opacity="0.51"/>
</linearGradient>
</defs>
</svg>
