<svg width="32" height="32" viewBox="0 0 32 32" fill="none" xmlns="http://www.w3.org/2000/svg">
<rect width="32" height="32" fill="#340040"/>
<g clip-path="url(#clip0_6085_45923)">
<rect width="22" height="9" transform="translate(5 11.5)" fill="#340040"/>
<path d="M19.1031 12.2511C19.3275 12.2511 19.5095 12.1277 19.5095 11.9754C19.5095 11.8231 19.3275 11.6997 19.1031 11.6997C18.8786 11.6997 18.6967 11.8231 18.6967 11.9754C18.6967 12.1277 18.8786 12.2511 19.1031 12.2511Z" fill="white"/>
<path d="M17.8676 12.2511C18.092 12.2511 18.274 12.1277 18.274 11.9754C18.274 11.8231 18.092 11.6997 17.8676 11.6997C17.6431 11.6997 17.4612 11.8231 17.4612 11.9754C17.4612 12.1277 17.6431 12.2511 17.8676 12.2511Z" fill="white"/>
<path d="M12.6197 12.5182C12.8441 12.5182 13.0261 12.3947 13.0261 12.2425C13.0261 12.0902 12.8441 11.9668 12.6197 11.9668C12.3952 11.9668 12.2133 12.0902 12.2133 12.2425C12.2133 12.3947 12.3952 12.5182 12.6197 12.5182Z" fill="white"/>
<path d="M20.3868 12.2511C20.6112 12.2511 20.7932 12.1277 20.7932 11.9754C20.7932 11.8231 20.6112 11.6997 20.3868 11.6997C20.1623 11.6997 19.9803 11.8231 19.9803 11.9754C19.9803 12.1277 20.1623 12.2511 20.3868 12.2511Z" fill="white"/>
<path d="M20.3868 15.8937C20.6112 15.8937 20.7932 15.7702 20.7932 15.618C20.7932 15.4657 20.6112 15.3423 20.3868 15.3423C20.1623 15.3423 19.9803 15.4657 19.9803 15.618C19.9803 15.7702 20.1623 15.8937 20.3868 15.8937Z" fill="white"/>
<path d="M20.1327 12.6602C19.879 12.6274 19.7302 12.7635 19.6499 12.9115C19.3396 13.4846 19.0558 14.065 18.7952 14.6498C18.6888 14.8887 18.5622 15.0956 18.8972 15.1738C19.274 15.262 19.2992 15.0959 19.4307 14.837C19.709 14.2889 19.9972 13.7015 20.278 13.1137C20.4076 12.843 20.4376 12.6993 20.1327 12.6602Z" fill="white"/>
<path d="M18.8888 12.6602C18.6351 12.6274 18.4863 12.7635 18.406 12.9115C18.0957 13.4846 17.8119 14.065 17.5513 14.6498C17.4449 14.8887 17.3183 15.0956 17.6533 15.1738C18.0301 15.262 18.0553 15.0959 18.1868 14.837C18.4651 14.2889 18.7533 13.7015 19.0341 13.1137C19.1637 12.843 19.1937 12.6993 18.8888 12.6602Z" fill="white"/>
<path d="M17.6449 12.6602C17.3912 12.6274 17.2424 12.7635 17.1621 12.9115C16.8518 13.4846 16.568 14.065 16.3074 14.6498C16.201 14.8887 16.0744 15.0956 16.4094 15.1738C16.7863 15.262 16.8114 15.0959 16.9429 14.837C17.2212 14.2889 17.5094 13.7015 17.7902 13.1137C17.9198 12.843 17.9498 12.6993 17.6449 12.6602Z" fill="white"/>
<path d="M16.1528 12.9195C15.9252 12.89 15.7917 13.0124 15.7198 13.145C15.4409 13.6596 15.1862 14.1806 14.9523 14.7056C14.8567 14.9201 14.7434 15.1056 15.0434 15.1761C15.3818 15.2553 15.4045 15.1062 15.5222 14.8737C15.772 14.3818 16.0306 13.8541 16.2828 13.3268C16.3996 13.0839 16.4262 12.9549 16.1528 12.9195Z" fill="white"/>
<path d="M21.6249 11.707C21.3712 11.6619 21.2224 11.8493 21.1421 12.0528C20.8317 12.8415 20.548 13.6401 20.2874 14.4441C20.181 14.7726 20.0544 15.0573 20.3894 15.1653C20.7662 15.2869 20.7913 15.0583 20.9229 14.7021C21.2012 13.9482 21.4894 13.1399 21.7702 12.3315C21.8998 11.9586 21.9297 11.7611 21.6249 11.707Z" fill="white"/>
<path d="M14.734 13.679C14.5591 13.6402 14.4399 13.7562 14.3685 13.8858C14.0901 14.3871 13.83 14.896 13.5857 15.4093C13.4857 15.6192 13.3753 15.7993 13.6024 15.8821C13.8586 15.9754 13.8936 15.8277 14.0128 15.6008C14.266 15.1209 14.53 14.6059 14.7892 14.0907C14.9084 13.8531 14.9448 13.7258 14.734 13.679Z" fill="white"/>
<path d="M13.7793 12.9195C13.5517 12.89 13.4182 13.0124 13.3462 13.145C13.0674 13.6596 12.8127 14.1806 12.5787 14.7056C12.4832 14.9201 12.3699 15.1056 12.6698 15.1761C13.0083 15.2553 13.031 15.1062 13.1487 14.8737C13.3985 14.3818 13.6571 13.8541 13.9093 13.3268C14.0261 13.0839 14.0531 12.9549 13.7793 12.9195Z" fill="white"/>
<path d="M12.9112 15.3301C12.8211 15.3301 12.7477 15.3799 12.7477 15.441C12.7477 15.5022 12.8211 15.552 12.9112 15.552C13.0014 15.552 13.0748 15.5022 13.0748 15.441C13.0748 15.3795 13.0014 15.3301 12.9112 15.3301Z" fill="white"/>
<path d="M12.3895 15.3301C12.2993 15.3301 12.226 15.3799 12.226 15.441C12.226 15.5022 12.2993 15.552 12.3895 15.552C12.4796 15.552 12.5531 15.5022 12.5531 15.441C12.5531 15.3795 12.4802 15.3301 12.3895 15.3301Z" fill="white"/>
<path d="M12.4364 12.9195C12.2088 12.89 12.0753 13.0124 12.0033 13.145C11.7245 13.6596 11.4698 14.1806 11.2358 14.7056C11.1403 14.9201 11.027 15.1056 11.327 15.1761C11.6654 15.2553 11.6881 15.1062 11.8058 14.8737C12.0556 14.3818 12.3142 13.8541 12.5664 13.3268C12.6832 13.0839 12.7098 12.9549 12.4364 12.9195Z" fill="white"/>
<path d="M11.4693 11.707C11.2157 11.6619 11.0669 11.8493 10.9866 12.0528C10.6762 12.8415 10.3925 13.6401 10.1319 14.4441C10.0255 14.7726 9.89887 15.0573 10.2338 15.1653C10.6107 15.2869 10.6358 15.0583 10.7674 14.7021C11.0457 13.9482 11.3339 13.1399 11.6147 12.3315C11.7442 11.9586 11.7743 11.7611 11.4693 11.707Z" fill="white"/>
<path d="M16.2903 12.4137C16.2903 12.4748 16.3637 12.5246 16.4538 12.5246C16.544 12.5246 16.6174 12.4748 16.6174 12.4137C16.6174 12.3525 16.544 12.3027 16.4538 12.3027C16.3632 12.3027 16.2903 12.3525 16.2903 12.4137Z" fill="white"/>
<path d="M15.7684 12.4137C15.7684 12.4748 15.8418 12.5246 15.932 12.5246C16.0221 12.5246 16.0955 12.4748 16.0955 12.4137C16.0955 12.3525 16.0221 12.3027 15.932 12.3027C15.8418 12.3027 15.7684 12.3525 15.7684 12.4137Z" fill="white"/>
<path d="M15.8256 11.8507C15.898 11.8363 15.9645 11.821 16.0222 11.8059C16.0493 11.7989 16.0739 11.7919 16.096 11.7852L16.8207 11.5807L16.8404 11.575C16.934 11.5483 16.9911 11.5239 16.9852 11.5102C16.9754 11.4871 16.7852 11.5045 16.5606 11.5493C16.5044 11.5603 16.4512 11.5723 16.4035 11.584H16.4029C16.3468 11.5977 16.3025 11.6114 16.2596 11.6245C16.1177 11.6682 15.7921 11.7591 15.6212 11.8046C15.5763 11.8166 15.532 11.8283 15.498 11.8393C15.433 11.8604 15.396 11.8784 15.4009 11.8895C15.4108 11.9125 15.601 11.8951 15.8256 11.8507Z" fill="white"/>
<path d="M6.14386 18.0335C6.15964 18.0335 6.18423 18.0321 6.21763 18.0289C6.25102 18.0258 6.27561 18.0244 6.29139 18.0244C6.5835 18.0244 6.85616 18.1074 7.10865 18.2732C7.36112 18.4391 7.50167 18.6521 7.53029 18.9114L5.44771 18.9204C5.43487 19.0232 5.42863 19.109 5.42863 19.1783C5.42863 19.6429 5.57322 19.9687 5.86239 20.1559C6.03083 20.2556 6.20698 20.3054 6.39157 20.3054C6.5791 20.3054 6.76184 20.2563 6.93982 20.1583C7.11782 20.0604 7.2558 19.9315 7.35451 19.7715C7.35782 19.7656 7.40699 19.6582 7.5024 19.4502L7.57397 19.5181C7.52296 19.6931 7.43635 19.8492 7.31415 19.9865C7.19194 20.1238 7.04333 20.2301 6.86865 20.3057L6.4301 20.4099H6.349C6.05028 20.4099 5.78643 20.3413 5.5578 20.204C5.32918 20.0667 5.16697 19.8684 5.07156 19.6087C5.02385 19.4216 5 19.2905 5 19.2149C5 19.0278 5.04771 18.8476 5.14312 18.674C5.23853 18.5005 5.37358 18.3534 5.54826 18.2328C5.74826 18.121 5.9468 18.0547 6.14386 18.0335ZM6.17249 18.1196C5.98496 18.1408 5.82936 18.2185 5.70533 18.3527C5.58129 18.4869 5.50826 18.6448 5.48624 18.8256H7.06387V18.7531C7.06387 18.566 6.98533 18.4137 6.82791 18.2959C6.67047 18.1781 6.48882 18.1192 6.28221 18.1192H6.17249V18.1196Z" fill="white"/>
<path d="M9.37984 18.0472C9.55452 18.0744 9.72773 18.1242 9.89947 18.1967C9.89617 18.3023 9.85508 18.4396 9.77544 18.6087C9.71196 18.4609 9.59598 18.3393 9.42755 18.2445C9.2591 18.1493 9.08442 18.1019 8.90314 18.1019C8.66791 18.1019 8.48698 18.1713 8.35965 18.31C8.28001 18.4065 8.24038 18.5062 8.24038 18.6087C8.24038 18.7292 8.30863 18.8334 8.44515 18.9209C8.77544 19.0115 9.10131 19.0628 9.42203 19.075C9.59378 19.084 9.73728 19.1461 9.85323 19.2607C9.96921 19.3754 10.0272 19.5082 10.0272 19.6591C10.0272 19.7434 10.0066 19.8281 9.96516 19.9124C9.74278 20.2445 9.36295 20.4104 8.82607 20.4104C8.73726 20.4104 8.61323 20.4045 8.45432 20.3923C8.09836 20.3561 7.84734 20.2867 7.70129 20.1843L7.86826 19.7633C7.96037 20.0619 8.24001 20.2446 8.70717 20.3108L9.1791 20.2972C9.30315 20.279 9.4191 20.2174 9.52699 20.1118C9.63489 20.0062 9.6892 19.896 9.6892 19.7814C9.6892 19.6789 9.64626 19.5914 9.5604 19.519C9.4936 19.4709 9.40296 19.436 9.28883 19.4148L8.52626 19.3106C8.35451 19.2743 8.20624 19.2043 8.08074 19.1C7.95524 18.9958 7.89249 18.8714 7.89249 18.7268C7.89249 18.6906 7.90534 18.6303 7.93065 18.5456C7.97836 18.4187 8.06093 18.3156 8.17836 18.2354C8.29578 18.1556 8.42203 18.1005 8.55708 18.0702C8.69212 18.0402 8.83744 18.0249 8.99305 18.0249C9.04368 18.0249 9.11525 18.0287 9.20736 18.0361C9.30058 18.0434 9.35783 18.0472 9.37984 18.0472Z" fill="white"/>
<path d="M10.8004 17.1963V18.6311C10.8577 18.4439 10.9799 18.2962 11.1674 18.1874C11.3549 18.0787 11.5582 18.0247 11.7773 18.0247C11.9615 18.0247 12.1325 18.063 12.2896 18.1401C12.447 18.2171 12.5637 18.3293 12.6401 18.4771C12.7002 18.6401 12.7336 18.782 12.7402 18.9026V20.1112C12.756 20.1597 12.7847 20.2056 12.8261 20.2492C12.8672 20.2931 12.912 20.3224 12.9597 20.3374L12.1351 20.3464C12.2496 20.2921 12.3208 20.2105 12.3494 20.1021C12.3843 19.7432 12.4019 19.4881 12.4019 19.3372C12.4019 19.0144 12.359 18.7308 12.2731 18.4861C12.2096 18.3805 12.119 18.2976 12.0015 18.2373C11.8841 18.177 11.7615 18.1467 11.6345 18.1467C11.4441 18.1467 11.2881 18.1979 11.1674 18.3007C11.072 18.3913 11.0004 18.4725 10.9531 18.545C10.8452 18.7653 10.7909 19.0385 10.7909 19.3644C10.7909 19.4459 10.8085 19.6784 10.8433 20.0614C10.8433 20.1941 10.9116 20.283 11.0481 20.3283L11.0386 20.3555L10.214 20.3464V20.3102C10.2393 20.3074 10.2808 20.2938 10.338 20.2694C10.4144 20.1851 10.4573 20.1004 10.4668 20.0161V17.6127C10.4668 17.5284 10.4367 17.4619 10.3762 17.4138C10.3571 17.4078 10.3204 17.3928 10.2665 17.3684L10.2617 17.3594C10.2584 17.3535 10.2569 17.3489 10.2569 17.3458L10.8004 17.1963Z" fill="white"/>
<path d="M13.8217 17.5537L13.8408 17.59V18.1964H14.2984L14.2602 18.3096L13.8408 18.3187V19.8169C13.8599 19.9588 13.9267 20.1006 14.0408 20.2424C14.1201 20.2818 14.1758 20.3045 14.2078 20.3104L14.1887 20.3467C14.1091 20.3648 14.0202 20.3738 13.9219 20.3738C13.836 20.3738 13.7501 20.3648 13.6646 20.3467L13.5931 20.3059C13.5325 20.2093 13.5024 20.1128 13.5024 20.0163V18.319L13.1545 18.31V18.2601C13.45 18.1664 13.6724 17.9311 13.8217 17.5537Z" fill="white"/>
<path d="M15.428 18.0244H15.5807C15.7076 18.0244 15.8331 18.0366 15.9572 18.0607C16.0812 18.0847 16.2008 18.1227 16.3172 18.1739C16.4331 18.2251 16.526 18.2983 16.5961 18.3935C16.6658 18.4886 16.701 18.5995 16.701 18.7263C16.6819 19.0612 16.6724 19.2303 16.6724 19.2334C16.6724 19.4686 16.6944 19.7447 16.7392 20.0618C16.7517 20.1642 16.8122 20.2625 16.9201 20.3559H16.4816C16.4085 20.2109 16.3719 20.0722 16.3719 19.9395C16.2764 20.0935 16.1469 20.2103 15.9836 20.2904C15.8199 20.3702 15.6397 20.4103 15.4427 20.4103L14.985 20.3288C14.8228 20.2897 14.6896 20.2134 14.5847 20.1001C14.4797 19.9869 14.4272 19.861 14.4272 19.7223C14.4272 19.6108 14.4702 19.4944 14.5561 19.3738C14.8008 19.0992 15.2504 18.9619 15.9047 18.9619C15.9524 18.9619 16.0287 18.9633 16.1333 18.9664C16.2383 18.9696 16.3113 18.971 16.3524 18.971C16.3462 18.7747 16.319 18.6089 16.2713 18.4729C16.2236 18.337 16.1282 18.236 15.9854 18.1697C15.8614 18.1126 15.7263 18.0837 15.5803 18.0837C15.3898 18.0837 15.2126 18.1356 15.0489 18.2398C14.8852 18.344 14.77 18.4806 14.7032 18.6493L14.5649 18.26L14.5744 18.2238C14.8672 18.1119 15.1517 18.0457 15.428 18.0244ZM16.3242 19.0654H16.0478C15.3263 19.0654 14.9355 19.2661 14.8753 19.6673C14.8753 19.6795 14.872 19.699 14.8658 19.7262C14.8595 19.7534 14.8562 19.7715 14.8562 19.7805C14.8562 19.9436 14.926 20.0726 15.0658 20.1674C15.2056 20.2625 15.3674 20.3099 15.552 20.3099C15.5902 20.3099 15.6647 20.3026 15.7759 20.2873C15.8647 20.2601 15.9491 20.2225 16.0284 20.174C16.2097 20.0534 16.3175 19.8677 16.3524 19.6174V19.1104L16.3242 19.0654Z" fill="white"/>
<path d="M18.5686 18.0655L18.4112 18.4774C18.3506 18.4172 18.2747 18.3868 18.1825 18.3868C18.1062 18.3868 18.0339 18.4116 17.9657 18.4614C17.8974 18.5112 17.8442 18.5768 17.806 18.6583C17.7202 18.8305 17.6757 18.9207 17.6724 18.9298V19.9028C17.6724 19.9962 17.6923 20.083 17.7319 20.1632C17.7715 20.243 17.8343 20.2921 17.9202 20.3102H17.9631L17.9536 20.3555H17.0574L17.0479 20.3193C17.1113 20.3075 17.1605 20.2907 17.1957 20.2695C17.2625 20.1851 17.3069 20.037 17.3293 19.8258V18.4771C17.3293 18.468 17.3286 18.4516 17.3271 18.4272C17.3257 18.4032 17.3246 18.3882 17.3246 18.3819C17.2831 18.3035 17.2053 18.2537 17.0912 18.2324L17.682 18.0829V18.6395C17.755 18.4917 17.8669 18.3589 18.0181 18.2412C18.169 18.1234 18.3257 18.0645 18.4875 18.0645H18.5686V18.0655Z" fill="white"/>
<path d="M19.8795 18.0335C19.8952 18.0335 19.9198 18.0321 19.9532 18.0289C19.9866 18.0258 20.0112 18.0244 20.027 18.0244C20.3191 18.0244 20.5918 18.1074 20.8442 18.2732C21.0967 18.4391 21.2373 18.6521 21.2659 18.9114L19.1833 18.9204C19.1705 19.0232 19.1642 19.109 19.1642 19.1783C19.1642 19.6429 19.3088 19.9687 19.598 20.1559C19.7664 20.2556 19.9426 20.3054 20.1272 20.3054C20.3147 20.3054 20.4971 20.2563 20.6754 20.1583C20.8534 20.0604 20.9914 19.9315 21.0901 19.7715C21.093 19.7656 21.1426 19.6582 21.238 19.4502L21.3096 19.5181C21.2585 19.6931 21.1719 19.8492 21.0497 19.9865C20.9275 20.1238 20.7789 20.2301 20.6042 20.3057L20.1657 20.4099H20.0846C19.7859 20.4099 19.522 20.3413 19.2934 20.204C19.0648 20.0667 18.9026 19.8684 18.8071 19.6087C18.7594 19.4216 18.7356 19.2905 18.7356 19.2149C18.7356 19.0278 18.7833 18.8476 18.8787 18.674C18.9741 18.5005 19.1092 18.3534 19.2839 18.2328C19.4838 18.121 19.6824 18.0547 19.8795 18.0335ZM19.9081 18.1196C19.7206 18.1408 19.5649 18.2185 19.4409 18.3527C19.3169 18.4869 19.2438 18.6448 19.2218 18.8256H20.7994V18.7531C20.7994 18.566 20.7209 18.4137 20.5635 18.2959C20.4061 18.1781 20.2244 18.1192 20.0178 18.1192H19.9081V18.1196Z" fill="white"/>
<path d="M23.0247 18.0244C23.2566 18.0244 23.4639 18.0833 23.6466 18.2008C23.8294 18.3186 23.9399 18.4799 23.9782 18.6852C24.013 19.2372 24.0306 19.6115 24.0306 19.8077V20.1109C24.0655 20.2134 24.1384 20.2949 24.2496 20.3552H23.406C23.5363 20.28 23.6155 20.1517 23.6441 19.9705C23.6566 19.7652 23.6632 19.6038 23.6632 19.486C23.6632 19.2236 23.6456 18.9504 23.6108 18.6667C23.5822 18.5036 23.5018 18.3764 23.37 18.2844C23.2383 18.1924 23.0882 18.1464 22.9198 18.1464C22.7164 18.1464 22.5399 18.2129 22.3906 18.3454C22.1777 18.5897 22.0713 18.9427 22.0713 19.4045C22.0713 19.5373 22.0857 19.7561 22.1143 20.0607C22.1237 20.1695 22.1887 20.2583 22.3099 20.3277C22.3128 20.3308 22.3172 20.3354 22.3216 20.3413C22.3263 20.3472 22.3304 20.3517 22.3338 20.3549H21.4852C21.6599 20.2493 21.7472 20.0984 21.7472 19.9022V18.5263C21.7472 18.5144 21.7432 18.4918 21.7355 18.4583C21.7274 18.4252 21.7234 18.4039 21.7234 18.3949C21.6757 18.3287 21.617 18.2771 21.5472 18.2408L21.5568 18.1955L22.086 18.0823V18.6479C22.1495 18.4517 22.2662 18.2987 22.4361 18.1886C22.606 18.0795 22.8024 18.0244 23.0247 18.0244Z" fill="white"/>
<path d="M25.3887 18.0244H25.5413C25.6684 18.0244 25.7938 18.0366 25.9179 18.0607C26.0419 18.0847 26.1616 18.1227 26.2775 18.1739C26.3936 18.2251 26.4863 18.2983 26.5564 18.3935C26.6261 18.4886 26.6615 18.5995 26.6615 18.7263C26.6424 19.0612 26.6327 19.2303 26.6327 19.2334C26.6327 19.4686 26.6549 19.7447 26.6996 20.0618C26.7121 20.1642 26.7727 20.2625 26.8805 20.3559H26.442C26.3689 20.2109 26.3322 20.0722 26.3322 19.9395C26.2369 20.0935 26.1072 20.2103 25.9439 20.2904C25.7803 20.3702 25.6001 20.4103 25.4031 20.4103L24.9455 20.3288C24.7832 20.2897 24.65 20.2134 24.5451 20.1001C24.4402 19.9869 24.3877 19.861 24.3877 19.7223C24.3877 19.6108 24.4305 19.4944 24.5165 19.3738C24.7612 19.0992 25.2108 18.9619 25.8651 18.9619C25.9128 18.9619 25.9891 18.9633 26.0937 18.9664C26.1986 18.9696 26.2717 18.971 26.3129 18.971C26.3066 18.7747 26.2794 18.6089 26.2316 18.4729C26.1839 18.337 26.0886 18.236 25.9458 18.1697C25.8218 18.1126 25.6867 18.0837 25.5407 18.0837C25.3503 18.0837 25.1729 18.1356 25.0093 18.2398C24.8456 18.344 24.7304 18.4806 24.6635 18.6493L24.5253 18.26L24.5348 18.2238C24.8277 18.1119 25.112 18.0457 25.3887 18.0244ZM26.2846 19.0654H26.0082C25.2866 19.0654 24.8962 19.2661 24.8356 19.6673C24.8356 19.6795 24.8324 19.699 24.8262 19.7262C24.8199 19.7534 24.8167 19.7715 24.8167 19.7805C24.8167 19.9436 24.8864 20.0726 25.0262 20.1674C25.166 20.2625 25.3278 20.3099 25.5124 20.3099C25.5506 20.3099 25.6251 20.3026 25.7363 20.2873C25.8251 20.2601 25.9094 20.2225 25.9888 20.174C26.17 20.0534 26.278 19.8677 26.3129 19.6174V19.1104L26.2846 19.0654Z" fill="white"/>
</g>
<defs>
<clipPath id="clip0_6085_45923">
<rect width="22" height="9" fill="white" transform="translate(5 11.5)"/>
</clipPath>
</defs>
</svg>
