<svg width="160" height="160" viewBox="0 0 160 160" fill="none" xmlns="http://www.w3.org/2000/svg">
<path d="M105.198 50.3416C106.987 50.3416 108.436 49.0123 108.436 47.3725C108.436 45.7327 106.987 44.4033 105.198 44.4033C103.41 44.4033 101.96 45.7327 101.96 47.3725C101.96 49.0123 103.41 50.3416 105.198 50.3416Z" fill="white"/>
<path d="M95.355 50.3416C97.1433 50.3416 98.593 49.0123 98.593 47.3725C98.593 45.7327 97.1433 44.4033 95.355 44.4033C93.5667 44.4033 92.1171 45.7327 92.1171 47.3725C92.1171 49.0123 93.5667 50.3416 95.355 50.3416Z" fill="white"/>
<path d="M53.5445 53.2181C55.3327 53.2181 56.7824 51.8888 56.7824 50.2489C56.7824 48.6091 55.3327 47.2798 53.5445 47.2798C51.7562 47.2798 50.3065 48.6091 50.3065 50.2489C50.3065 51.8888 51.7562 53.2181 53.5445 53.2181Z" fill="white"/>
<path d="M115.425 50.3416C117.214 50.3416 118.663 49.0123 118.663 47.3725C118.663 45.7327 117.214 44.4033 115.425 44.4033C113.637 44.4033 112.188 45.7327 112.188 47.3725C112.188 49.0123 113.637 50.3416 115.425 50.3416Z" fill="white"/>
<path d="M115.425 89.5716C117.214 89.5716 118.663 88.2423 118.663 86.6025C118.663 84.9626 117.214 83.6333 115.425 83.6333C113.637 83.6333 112.188 84.9626 112.188 86.6025C112.188 88.2423 113.637 89.5716 115.425 89.5716Z" fill="white"/>
<path d="M113.401 54.7429C111.38 54.3902 110.194 55.855 109.555 57.4494C107.082 63.6216 104.821 69.8731 102.745 76.1713C101.897 78.7446 100.889 80.9723 103.558 81.8145C106.56 82.7646 106.76 80.9759 107.808 78.1867C110.026 72.2844 112.322 65.9574 114.559 59.6268C115.591 56.7116 115.83 55.164 113.401 54.7429Z" fill="white"/>
<path d="M103.491 54.7429C101.469 54.3902 100.284 55.855 99.6443 57.4494C97.1717 63.6216 94.911 69.8731 92.8348 76.1713C91.987 78.7446 90.9784 80.9723 93.6472 81.8145C96.6497 82.7646 96.8498 80.9759 97.8977 78.1867C100.115 72.2844 102.411 65.9574 104.648 59.6268C105.681 56.7116 105.92 55.164 103.491 54.7429Z" fill="white"/>
<path d="M93.5809 54.7429C91.5596 54.3902 90.3743 55.855 89.7346 57.4494C87.262 63.6216 85.0013 69.8731 82.9251 76.1713C82.0774 78.7446 81.0687 80.9723 83.7376 81.8145C86.74 82.7646 86.9402 80.9759 87.9881 78.1867C90.2056 72.2844 92.5016 65.9574 94.7387 59.6268C95.7709 56.7116 96.0103 55.164 93.5809 54.7429Z" fill="white"/>
<path d="M81.6925 57.5368C79.8793 57.2201 78.8157 58.5373 78.2426 59.9661C76.0212 65.5085 73.9921 71.1194 72.1278 76.7734C71.3664 79.0839 70.4637 81.0813 72.8539 81.8407C75.5502 82.6937 75.7308 81.0885 76.6688 78.5836C78.6587 73.2859 80.7192 67.6031 82.7287 61.9239C83.6588 59.3075 83.8708 57.9183 81.6925 57.5368Z" fill="white"/>
<path d="M125.289 44.4763C123.268 43.9904 122.083 46.0094 121.443 48.2012C118.97 56.6948 116.71 65.2964 114.633 73.9555C113.786 77.4933 112.777 80.5597 115.446 81.7221C118.448 83.0322 118.648 80.5705 119.696 76.734C121.914 68.6147 124.21 59.9087 126.447 51.2028C127.479 47.1863 127.719 45.0593 125.289 44.4763Z" fill="white"/>
<path d="M70.3896 65.7165C68.9963 65.299 68.0465 66.5479 67.4774 67.9443C65.2599 73.3427 63.1876 78.824 61.2409 84.352C60.4442 86.6122 59.565 88.552 61.3744 89.4446C63.4152 90.4487 63.6939 88.8579 64.6437 86.4142C66.661 81.2461 68.7647 75.7001 70.8292 70.1504C71.779 67.5916 72.0694 66.2203 70.3896 65.7165Z" fill="white"/>
<path d="M62.7832 57.5368C60.97 57.2201 59.9064 58.5373 59.3333 59.9661C57.1119 65.5085 55.0828 71.1194 53.2185 76.7734C52.4571 79.0839 51.5544 81.0813 53.9446 81.8407C56.6409 82.6937 56.8215 81.0885 57.7595 78.5836C59.7494 73.2859 61.8099 67.6031 63.8194 61.9239C64.7495 59.3075 64.9654 57.9183 62.7832 57.5368Z" fill="white"/>
<path d="M55.8677 83.4995C55.1495 83.4995 54.5647 84.0358 54.5647 84.6944C54.5647 85.353 55.1495 85.8892 55.8677 85.8892C56.586 85.8892 57.1708 85.353 57.1708 84.6944C57.1708 84.0322 56.586 83.4995 55.8677 83.4995Z" fill="white"/>
<path d="M51.7111 83.4995C50.9929 83.4995 50.4081 84.0358 50.4081 84.6944C50.4081 85.353 50.9929 85.8892 51.7111 85.8892C52.4293 85.8892 53.0141 85.353 53.0141 84.6944C53.0141 84.0322 52.4333 83.4995 51.7111 83.4995Z" fill="white"/>
<path d="M52.0844 57.5368C50.2711 57.2201 49.2075 58.5373 48.6345 59.9661C46.4131 65.5085 44.384 71.1194 42.5197 76.7734C41.7583 79.0839 40.8556 81.0813 43.2458 81.8407C45.9421 82.6937 46.1226 81.0885 47.0607 78.5836C49.0505 73.2859 51.111 67.6031 53.1205 61.9239C54.0507 59.3075 54.2626 57.9183 52.0844 57.5368Z" fill="white"/>
<path d="M44.3797 44.4763C42.3585 43.9904 41.1732 46.0094 40.5334 48.2012C38.0608 56.6948 35.8002 65.2964 33.724 73.9555C32.8762 77.4933 31.8675 80.5597 34.5364 81.7221C37.5388 83.0322 37.739 80.5705 38.7869 76.734C41.0044 68.6147 43.3004 59.9087 45.5375 51.2028C46.5698 47.1863 46.8092 45.0593 44.3797 44.4763Z" fill="white"/>
<path d="M82.7881 52.0918C82.7881 52.7504 83.3729 53.2867 84.0911 53.2867C84.8094 53.2867 85.3941 52.7504 85.3941 52.0918C85.3941 51.4332 84.8094 50.897 84.0911 50.897C83.369 50.897 82.7881 51.4332 82.7881 52.0918Z" fill="white"/>
<path d="M78.6313 52.0918C78.6313 52.7504 79.2161 53.2867 79.9344 53.2867C80.6526 53.2867 81.2374 52.7504 81.2374 52.0918C81.2374 51.4332 80.6526 50.897 79.9344 50.897C79.2161 50.897 78.6313 51.4332 78.6313 52.0918Z" fill="white"/>
<path d="M79.0864 46.0271C79.6633 45.8723 80.1931 45.7068 80.6523 45.5448C80.8682 45.4692 81.0644 45.3936 81.2411 45.3217L87.0144 43.1191L87.1714 43.0579C87.9171 42.77 88.3724 42.5073 88.3253 42.3597C88.2468 42.1114 86.7318 42.2985 84.9421 42.7808C84.4947 42.8996 84.0708 43.0291 83.6901 43.1551H83.6862C83.2388 43.3027 82.8855 43.4502 82.5441 43.5906C81.4137 44.062 78.8195 45.0409 77.4576 45.5304C77.1004 45.66 76.7472 45.7859 76.4764 45.9047C75.9583 46.1314 75.6639 46.3258 75.7032 46.4445C75.7817 46.6929 77.2967 46.5057 79.0864 46.0271Z" fill="white"/>
<path d="M17.3189 102.961C17.4198 102.961 17.5771 102.952 17.7908 102.932C18.0045 102.913 18.1618 102.904 18.2628 102.904C20.1318 102.904 21.8764 103.42 23.4919 104.453C25.1073 105.485 26.0066 106.81 26.1898 108.423L12.8646 108.479C12.7824 109.119 12.7425 109.653 12.7425 110.084C12.7425 112.975 13.6677 115.002 15.5179 116.167C16.5957 116.787 17.7227 117.097 18.9038 117.097C20.1036 117.097 21.273 116.791 22.4118 116.182C23.5506 115.573 24.4335 114.77 25.0651 113.775C25.0862 113.738 25.4008 113.07 26.0113 111.776L26.4692 112.198C26.1428 113.287 25.5887 114.259 24.8068 115.113C24.0249 115.967 23.0739 116.629 21.9563 117.099L19.1503 117.748H18.6314C16.7201 117.748 15.0319 117.32 13.569 116.466C12.1062 115.612 11.0684 114.378 10.4579 112.762C10.1526 111.598 10 110.782 10 110.312C10 109.147 10.3052 108.026 10.9157 106.946C11.5262 105.866 12.3903 104.951 13.508 104.201C14.7877 103.505 16.058 103.093 17.3189 102.961ZM17.502 103.496C16.3022 103.629 15.3066 104.112 14.5129 104.947C13.7193 105.782 13.252 106.764 13.1112 107.89H23.2054V107.439C23.2054 106.274 22.7029 105.327 21.6956 104.594C20.6883 103.861 19.526 103.494 18.2041 103.494H17.502V103.496Z" fill="white"/>
<path d="M38.0239 103.046C39.1416 103.215 40.2499 103.525 41.3487 103.976C41.3276 104.633 41.0646 105.487 40.5551 106.539C40.1489 105.62 39.4069 104.863 38.3292 104.273C37.2514 103.681 36.1337 103.386 34.9738 103.386C33.4687 103.386 32.3111 103.818 31.4963 104.681C30.9868 105.281 30.7332 105.901 30.7332 106.539C30.7332 107.289 31.17 107.938 32.0434 108.482C34.1567 109.046 36.2417 109.365 38.2939 109.44C39.3928 109.497 40.3109 109.883 41.0529 110.596C41.7949 111.31 42.1659 112.136 42.1659 113.075C42.1659 113.6 42.0344 114.127 41.769 114.651C40.3461 116.718 37.9159 117.75 34.4807 117.75C33.9125 117.75 33.1188 117.713 32.1021 117.637C29.8245 117.412 28.2185 116.98 27.2839 116.343L28.3523 113.723C28.9417 115.582 30.7309 116.718 33.7199 117.13L36.7395 117.045C37.5332 116.933 38.2751 116.549 38.9655 115.892C39.6558 115.235 40.0033 114.549 40.0033 113.836C40.0033 113.198 39.7286 112.654 39.1791 112.203C38.7518 111.904 38.1718 111.687 37.4416 111.555L32.5624 110.906C31.4635 110.681 30.5148 110.245 29.7118 109.597C28.9088 108.948 28.5073 108.174 28.5073 107.274C28.5073 107.049 28.5895 106.673 28.7515 106.146C29.0567 105.357 29.585 104.715 30.3364 104.217C31.0878 103.72 31.8955 103.377 32.7596 103.189C33.6237 103.002 34.5535 102.907 35.5491 102.907C35.8731 102.907 36.331 102.931 36.9203 102.976C37.5167 103.022 37.883 103.046 38.0239 103.046Z" fill="white"/>
<path d="M47.1134 97.75V106.678C47.4797 105.513 48.2616 104.594 49.4614 103.917C50.6613 103.241 51.9621 102.904 53.3639 102.904C54.5426 102.904 55.6368 103.143 56.6418 103.622C57.6491 104.102 58.3958 104.8 58.8842 105.719C59.2692 106.734 59.4829 107.617 59.5252 108.367V115.887C59.6261 116.189 59.8093 116.475 60.0746 116.746C60.3376 117.019 60.6241 117.201 60.9293 117.295L55.6532 117.351C56.3858 117.013 56.8414 116.505 57.0245 115.831C57.2476 113.597 57.3603 112.01 57.3603 111.071C57.3603 109.063 57.0856 107.298 56.5361 105.776C56.1299 105.119 55.5499 104.602 54.7985 104.227C54.0472 103.852 53.2629 103.663 52.4505 103.663C51.2319 103.663 50.2339 103.982 49.4614 104.622C48.8509 105.186 48.3931 105.691 48.0902 106.142C47.3999 107.513 47.0523 109.213 47.0523 111.24C47.0523 111.748 47.165 113.194 47.3881 115.577C47.3881 116.403 47.8248 116.956 48.6983 117.238L48.6373 117.407L43.3612 117.351V117.125C43.5232 117.108 43.7886 117.024 44.1548 116.872C44.6432 116.347 44.918 115.82 44.979 115.295V100.341C44.979 99.8166 44.7865 99.4024 44.399 99.1031C44.2769 99.0663 44.0421 98.973 43.697 98.8212L43.6665 98.7649C43.6453 98.728 43.6359 98.6998 43.6359 98.6803L47.1134 97.75Z" fill="white"/>
<path d="M66.4447 99.9751L66.5667 100.201V103.974H69.4948L69.2506 104.679L66.5667 104.735V114.057C66.6888 114.94 67.1162 115.822 67.8464 116.705C68.3536 116.95 68.7105 117.091 68.9148 117.128L68.7927 117.353C68.2832 117.466 67.7149 117.523 67.0857 117.523C66.5362 117.523 65.9868 117.466 65.4397 117.353L64.9818 117.1C64.5944 116.499 64.4018 115.898 64.4018 115.298V104.737L62.1759 104.681V104.371C64.0661 103.787 65.489 102.324 66.4447 99.9751Z" fill="white"/>
<path d="M76.7221 102.904H77.6989C78.5113 102.904 79.3143 102.98 80.108 103.13C80.9016 103.279 81.6671 103.516 82.4114 103.835C83.1534 104.153 83.7475 104.609 84.1959 105.201C84.6421 105.793 84.8675 106.482 84.8675 107.272C84.7454 109.356 84.6843 110.407 84.6843 110.427C84.6843 111.891 84.8252 113.608 85.1117 115.581C85.1915 116.219 85.5789 116.83 86.2693 117.412H83.4633C82.9961 116.509 82.7613 115.646 82.7613 114.82C82.1508 115.779 81.3219 116.505 80.277 117.004C79.2298 117.5 78.0769 117.75 76.816 117.75L73.888 117.242C72.8502 117 71.9978 116.525 71.3263 115.82C70.6547 115.115 70.319 114.332 70.319 113.469C70.319 112.775 70.5937 112.051 71.1431 111.301C72.7093 109.592 75.5856 108.738 79.7722 108.738C80.0774 108.738 80.5659 108.746 81.235 108.766C81.9066 108.785 82.3738 108.794 82.6368 108.794C82.5969 107.573 82.4232 106.541 82.1179 105.695C81.8127 104.849 81.2022 104.221 80.2888 103.809C79.4951 103.453 78.6311 103.273 77.6965 103.273C76.4779 103.273 75.3438 103.596 74.2966 104.244C73.2493 104.893 72.512 105.743 72.0847 106.792L71.1995 104.37L71.2605 104.145C73.1343 103.449 74.954 103.037 76.7221 102.904ZM82.456 109.382H80.6879C76.0717 109.382 73.571 110.631 73.1859 113.127C73.1859 113.202 73.1648 113.324 73.1249 113.493C73.085 113.662 73.0638 113.775 73.0638 113.831C73.0638 114.846 73.51 115.649 74.4046 116.238C75.2992 116.83 76.3347 117.125 77.5157 117.125C77.7599 117.125 78.2366 117.08 78.948 116.984C79.5163 116.815 80.0563 116.581 80.5635 116.28C81.7234 115.529 82.4138 114.373 82.6368 112.816V109.661L82.456 109.382Z" fill="white"/>
<path d="M96.8166 103.158L95.8093 105.722C95.4219 105.346 94.9358 105.158 94.3465 105.158C93.8581 105.158 93.3955 105.312 92.9588 105.622C92.522 105.932 92.1816 106.34 91.9374 106.847C91.3879 107.918 91.1038 108.48 91.0827 108.536V114.591C91.0827 115.172 91.2095 115.712 91.4631 116.211C91.7167 116.707 92.1182 117.013 92.6676 117.126H92.9423L92.8813 117.408H87.1474L87.0863 117.182C87.4925 117.108 87.8072 117.004 88.0326 116.872C88.4599 116.347 88.744 115.426 88.8873 114.111V105.719C88.8873 105.663 88.8826 105.561 88.8732 105.409C88.8638 105.26 88.8567 105.166 88.8567 105.127C88.5914 104.639 88.0936 104.329 87.3634 104.197L91.1437 103.267V106.73C91.611 105.81 92.3271 104.984 93.2945 104.251C94.2596 103.518 95.2622 103.152 96.2977 103.152H96.8166V103.158Z" fill="white"/>
<path d="M105.204 102.961C105.305 102.961 105.462 102.952 105.676 102.932C105.89 102.913 106.047 102.904 106.148 102.904C108.017 102.904 109.762 103.42 111.377 104.453C112.992 105.485 113.892 106.81 114.075 108.423L100.75 108.479C100.668 109.119 100.628 109.653 100.628 110.084C100.628 112.975 101.553 115.002 103.403 116.167C104.481 116.787 105.608 117.097 106.789 117.097C107.989 117.097 109.156 116.791 110.297 116.182C111.436 115.573 112.319 114.77 112.95 113.775C112.969 113.738 113.286 113.07 113.896 111.776L114.354 112.198C114.028 113.287 113.474 114.259 112.692 115.113C111.91 115.967 110.959 116.629 109.841 117.099L107.035 117.748H106.517C104.605 117.748 102.917 117.32 101.454 116.466C99.9913 115.612 98.9535 114.378 98.343 112.762C98.0378 111.598 97.8851 110.782 97.8851 110.312C97.8851 109.147 98.1904 108.026 98.8009 106.946C99.4114 105.866 100.275 104.951 101.393 104.201C102.673 103.505 103.943 103.093 105.204 102.961ZM105.387 103.496C104.187 103.629 103.192 104.112 102.398 104.947C101.604 105.782 101.137 106.764 100.996 107.89H111.091V107.439C111.091 106.274 110.588 105.327 109.581 104.594C108.573 103.861 107.411 103.494 106.089 103.494H105.387V103.496Z" fill="white"/>
<path d="M125.329 102.904C126.813 102.904 128.14 103.271 129.309 104.002C130.478 104.735 131.185 105.739 131.429 107.016C131.652 110.451 131.765 112.78 131.765 114V115.887C131.988 116.525 132.455 117.032 133.167 117.407H127.769C128.602 116.939 129.109 116.141 129.293 115.013C129.372 113.736 129.415 112.732 129.415 111.999C129.415 110.366 129.302 108.666 129.079 106.901C128.896 105.886 128.382 105.094 127.539 104.522C126.696 103.95 125.735 103.663 124.658 103.663C123.357 103.663 122.227 104.077 121.272 104.901C119.91 106.422 119.229 108.618 119.229 111.492C119.229 112.318 119.32 113.68 119.504 115.575C119.565 116.251 119.98 116.804 120.755 117.236C120.774 117.255 120.802 117.284 120.83 117.32C120.861 117.357 120.887 117.386 120.908 117.405H115.479C116.597 116.748 117.156 115.809 117.156 114.588V106.027C117.156 105.953 117.13 105.812 117.08 105.604C117.029 105.398 117.003 105.266 117.003 105.209C116.698 104.797 116.322 104.476 115.876 104.251L115.937 103.969L119.323 103.264V106.784C119.729 105.563 120.476 104.611 121.563 103.926C122.65 103.247 123.906 102.904 125.329 102.904Z" fill="white"/>
<path d="M140.455 102.904H141.432C142.244 102.904 143.047 102.98 143.841 103.13C144.635 103.279 145.4 103.516 146.142 103.835C146.884 104.153 147.478 104.609 147.927 105.201C148.373 105.793 148.598 106.482 148.598 107.272C148.476 109.356 148.415 110.407 148.415 110.427C148.415 111.891 148.556 113.608 148.842 115.581C148.922 116.219 149.31 116.83 150 117.412H147.194C146.727 116.509 146.492 115.646 146.492 114.82C145.881 115.779 145.053 116.505 144.008 117.004C142.961 117.5 141.808 117.75 140.547 117.75L137.619 117.242C136.581 117 135.729 116.525 135.057 115.82C134.385 115.115 134.05 114.332 134.05 113.469C134.05 112.775 134.324 112.051 134.874 111.301C136.44 109.592 139.316 108.738 143.503 108.738C143.808 108.738 144.297 108.746 144.966 108.766C145.637 108.785 146.105 108.794 146.368 108.794C146.328 107.573 146.154 106.541 145.849 105.695C145.543 104.849 144.933 104.221 144.02 103.809C143.226 103.453 142.362 103.273 141.427 103.273C140.209 103.273 139.075 103.596 138.027 104.244C136.98 104.893 136.243 105.743 135.815 106.792L134.93 104.37L134.991 104.145C136.865 103.449 138.685 103.037 140.455 102.904ZM146.187 109.382H144.419C139.802 109.382 137.304 110.631 136.917 113.127C136.917 113.202 136.896 113.324 136.856 113.493C136.816 113.662 136.795 113.775 136.795 113.831C136.795 114.846 137.241 115.649 138.135 116.238C139.03 116.83 140.065 117.125 141.246 117.125C141.491 117.125 141.967 117.08 142.679 116.984C143.247 116.815 143.787 116.581 144.294 116.28C145.454 115.529 146.144 114.373 146.368 112.816V109.661L146.187 109.382Z" fill="white"/>
</svg>
