<svg width="815" height="441" viewBox="0 0 815 441" fill="none" xmlns="http://www.w3.org/2000/svg">
<path d="M511.218 75.7125C518.86 75.7125 525.054 69.5176 525.054 61.8758C525.054 54.234 518.86 48.0391 511.218 48.0391C503.576 48.0391 497.381 54.234 497.381 61.8758C497.381 69.5176 503.576 75.7125 511.218 75.7125Z" fill="#F6FAFF"/>
<path d="M469.152 75.7125C476.794 75.7125 482.989 69.5176 482.989 61.8758C482.989 54.234 476.794 48.0391 469.152 48.0391C461.51 48.0391 455.316 54.234 455.316 61.8758C455.316 69.5176 461.51 75.7125 469.152 75.7125Z" fill="#F6FAFF"/>
<path d="M334.485 89.1109C342.127 89.1109 348.322 82.916 348.322 75.2742C348.322 67.6324 342.127 61.4375 334.485 61.4375C326.843 61.4375 320.648 67.6324 320.648 75.2742C320.648 82.916 326.843 89.1109 334.485 89.1109Z" fill="#F6FAFF"/>
<path d="M554.925 75.7125C562.567 75.7125 568.761 69.5176 568.761 61.8758C568.761 54.234 562.567 48.0391 554.925 48.0391C547.283 48.0391 541.088 54.234 541.088 61.8758C541.088 69.5176 547.283 75.7125 554.925 75.7125Z" fill="#F6FAFF"/>
<path d="M546.271 96.2216C537.634 94.5779 532.569 101.404 529.835 108.834C519.269 137.597 509.608 166.73 500.736 196.081C497.113 208.073 492.803 218.454 504.208 222.379C517.038 226.807 517.893 218.471 522.372 205.473C531.848 177.967 541.659 148.482 551.219 118.981C555.63 105.396 556.653 98.1838 546.271 96.2216Z" fill="#F6FAFF"/>
<path d="M503.922 96.2216C495.284 94.5779 490.219 101.404 487.485 108.834C476.919 137.597 467.259 166.73 458.386 196.081C454.764 208.073 450.453 218.454 461.858 222.379C474.689 226.807 475.544 218.471 480.022 205.473C489.498 177.967 499.309 148.482 508.869 118.981C513.28 105.396 514.303 98.1838 503.922 96.2216Z" fill="#F6FAFF"/>
<path d="M461.572 96.2216C452.935 94.5779 447.87 101.404 445.136 108.834C434.57 137.597 424.909 166.73 416.037 196.081C412.414 208.073 408.104 218.454 419.509 222.379C432.339 226.807 433.194 218.471 437.672 205.473C447.148 177.967 456.96 148.482 466.52 118.981C470.931 105.396 471.954 98.1838 461.572 96.2216Z" fill="#F6FAFF"/>
<path d="M406.468 147.359C400.514 145.414 396.456 151.234 394.024 157.741C384.548 182.899 375.692 208.442 367.373 234.204C363.969 244.736 360.212 253.776 367.943 257.936C376.665 262.615 377.856 255.202 381.914 243.814C390.535 219.729 399.525 193.884 408.347 168.022C412.405 156.097 413.647 149.707 406.468 147.359Z" fill="#F6FAFF"/>
<path d="M373.966 109.237C366.217 107.761 361.672 113.9 359.223 120.558C349.731 146.387 341.059 172.534 333.093 198.882C329.839 209.65 325.982 218.958 336.196 222.497C347.718 226.472 348.489 218.992 352.498 207.319C361.001 182.63 369.806 156.148 378.394 129.682C382.368 117.489 383.291 111.015 373.966 109.237Z" fill="#F6FAFF"/>
<path d="M344.414 230.23C341.345 230.23 338.846 232.729 338.846 235.799C338.846 238.868 341.345 241.367 344.414 241.367C347.483 241.367 349.982 238.868 349.982 235.799C349.982 232.713 347.483 230.23 344.414 230.23Z" fill="#F6FAFF"/>
<path d="M326.652 230.23C323.583 230.23 321.084 232.729 321.084 235.799C321.084 238.868 323.583 241.367 326.652 241.367C329.721 241.367 332.22 238.868 332.22 235.799C332.22 232.713 329.738 230.23 326.652 230.23Z" fill="#F6FAFF"/>
<path d="M328.245 109.237C320.496 107.761 315.951 113.9 313.503 120.558C304.01 146.387 295.339 172.534 287.372 198.882C284.118 209.65 280.261 218.958 290.475 222.497C301.997 226.472 302.769 218.992 306.777 207.319C315.28 182.63 324.086 156.148 332.673 129.682C336.648 117.489 337.553 111.015 328.245 109.237Z" fill="#F6FAFF"/>
<path d="M295.322 48.3732C286.685 46.1091 281.619 55.518 278.886 65.732C268.319 105.313 258.659 145.398 249.787 185.751C246.164 202.237 241.854 216.527 253.258 221.944C266.089 228.049 266.944 216.577 271.422 198.699C280.898 160.862 290.71 120.291 300.27 79.7197C304.681 61.0024 305.704 51.0903 295.322 48.3732Z" fill="#F6FAFF"/>
<path d="M499.634 17.6017C502.1 16.8805 504.364 16.109 506.326 15.3542C507.249 15.002 508.087 14.6498 508.842 14.3144L533.513 4.05008L534.184 3.76499C537.371 2.42325 539.317 1.1989 539.115 0.511261C538.78 -0.645991 532.306 0.226112 524.658 2.47353C522.746 3.027 520.935 3.63085 519.308 4.21786H519.291C517.379 4.9055 515.87 5.59308 514.41 6.24718C509.58 8.44428 498.494 13.0062 492.674 15.2872C491.148 15.891 489.639 16.4779 488.481 17.0314C486.267 18.088 485.009 18.9937 485.177 19.5472C485.513 20.7044 491.987 19.8323 499.634 17.6017Z" fill="#F6FAFF"/>
<path d="M76.7141 326.435C84.6975 327.743 92.6137 330.141 100.463 333.63C100.312 338.712 98.4336 345.32 94.7941 353.454C91.8926 346.343 86.5927 340.489 78.8944 335.928C71.1962 331.349 63.2128 329.068 54.9275 329.068C44.1768 329.068 35.9084 332.405 30.0886 339.081C26.4491 343.726 24.6377 348.523 24.6377 353.454C24.6377 359.257 27.7573 364.272 33.9964 368.482C49.091 372.842 63.9843 375.308 78.6429 375.895C86.492 376.331 93.0498 379.316 98.3497 384.834C103.65 390.352 106.299 396.742 106.299 404.004C106.299 408.063 105.36 412.138 103.465 416.197C93.3014 432.181 75.9426 440.164 51.4055 440.164C47.3467 440.164 41.6779 439.879 34.4157 439.292C18.1471 437.548 6.67516 434.21 0 429.279L7.63119 409.019C11.8409 423.392 24.621 432.181 45.9714 435.367L67.54 434.713C73.2088 433.841 78.5087 430.873 83.4396 425.791C88.3705 420.709 90.8527 415.409 90.8527 409.891C90.8527 404.96 88.8904 400.751 84.9658 397.262C81.9133 394.948 77.7707 393.27 72.5547 392.247L37.703 387.233C29.8538 385.488 23.078 382.117 17.342 377.102C11.6061 372.088 8.73813 366.1 8.73813 359.14C8.73813 357.396 9.3251 354.494 10.4824 350.418C12.6627 344.313 16.4363 339.349 21.8033 335.492C27.1703 331.651 32.9398 329.001 39.1118 327.542C45.2838 326.099 51.9254 325.361 59.0367 325.361C61.3512 325.361 64.6217 325.546 68.8314 325.898C73.0914 326.25 75.7078 326.435 76.7141 326.435Z" fill="#F6FAFF"/>
<path d="M141.637 285.479V354.528C144.254 345.522 149.839 338.41 158.409 333.177C166.979 327.945 176.271 325.345 186.284 325.345C194.703 325.345 202.519 327.19 209.697 330.896C216.892 334.603 222.226 340.004 225.714 347.115C228.465 354.964 229.991 361.79 230.293 367.593V425.758C231.014 428.089 232.322 430.303 234.217 432.399C236.096 434.512 238.142 435.921 240.322 436.643L202.636 437.079C207.869 434.462 211.123 430.538 212.431 425.322C214.024 408.047 214.829 395.77 214.829 388.507C214.829 372.977 212.867 359.325 208.942 347.551C206.041 342.469 201.898 338.477 196.531 335.576C191.164 332.674 185.562 331.215 179.759 331.215C171.055 331.215 163.927 333.681 158.409 338.628C154.048 342.989 150.778 346.897 148.614 350.385C143.683 360.985 141.201 374.134 141.201 389.816C141.201 393.74 142.006 404.927 143.6 423.359C143.6 429.749 146.719 434.026 152.958 436.206L152.522 437.515L114.836 437.079V435.334C115.993 435.2 117.888 434.546 120.505 433.372C123.993 429.313 125.956 425.238 126.392 421.179V305.521C126.392 301.462 125.016 298.259 122.249 295.944C121.377 295.659 119.7 294.938 117.234 293.764L117.016 293.328C116.865 293.043 116.798 292.825 116.798 292.674L141.637 285.479Z" fill="#F6FAFF"/>
<path d="M291.129 325.346H298.106C303.909 325.346 309.645 325.933 315.314 327.09C320.983 328.247 326.451 330.075 331.767 332.541C337.067 335.006 341.31 338.528 344.514 343.107C347.7 347.686 349.31 353.019 349.31 359.124C348.438 375.242 348.002 383.376 348.002 383.527C348.002 394.848 349.009 408.131 351.055 423.394C351.625 428.324 354.392 433.054 359.323 437.549H339.281C335.943 430.572 334.266 423.897 334.266 417.507C329.906 424.92 323.985 430.538 316.522 434.396C309.041 438.237 300.806 440.165 291.8 440.165L270.886 436.241C263.472 434.362 257.384 430.689 252.588 425.238C247.791 419.788 245.393 413.733 245.393 407.058C245.393 401.691 247.355 396.089 251.279 390.286C262.466 377.07 283.012 370.462 312.916 370.462C315.096 370.462 318.585 370.529 323.365 370.68C328.161 370.831 331.499 370.898 333.377 370.898C333.092 361.455 331.851 353.472 329.671 346.931C327.49 340.39 323.13 335.526 316.605 332.34C310.937 329.589 304.765 328.197 298.089 328.197C289.385 328.197 281.284 330.696 273.804 335.711C266.324 340.726 261.057 347.3 258.005 355.417L251.682 336.683L252.118 334.939C265.502 329.555 278.5 326.369 291.129 325.346ZM332.086 375.443H319.457C286.483 375.443 268.621 385.104 265.871 404.408C265.871 404.995 265.72 405.934 265.435 407.242C265.15 408.55 264.999 409.423 264.999 409.859C264.999 417.708 268.185 423.913 274.575 428.475C280.965 433.054 288.362 435.335 296.798 435.335C298.542 435.335 301.947 434.983 307.029 434.245C311.088 432.937 314.945 431.125 318.568 428.794C326.853 422.991 331.784 414.052 333.377 402.01V377.606L332.086 375.443Z" fill="#F6FAFF"/>
<path d="M434.662 327.306L427.467 347.13C424.7 344.229 421.228 342.77 417.018 342.77C413.53 342.77 410.226 343.961 407.106 346.359C403.987 348.757 401.555 351.91 399.811 355.835C395.886 364.12 393.857 368.464 393.706 368.9V415.727C393.706 420.222 394.611 424.398 396.423 428.256C398.234 432.096 401.102 434.461 405.027 435.333H406.989L406.553 437.514H365.596L365.16 435.769C368.062 435.199 370.309 434.394 371.919 433.371C374.972 429.312 377.001 422.184 378.024 412.02V347.114C378.024 346.678 377.991 345.889 377.923 344.715C377.856 343.558 377.806 342.837 377.806 342.535C375.911 338.761 372.355 336.363 367.139 335.34L394.142 328.145V354.929C397.479 347.818 402.595 341.428 409.505 335.759C416.398 330.09 423.559 327.256 430.956 327.256H434.662V327.306Z" fill="#F6FAFF"/>
<path d="M494.571 325.782C495.292 325.782 496.415 325.715 497.942 325.564C499.468 325.413 500.592 325.346 501.313 325.346C514.663 325.346 527.125 329.337 538.664 337.321C550.203 345.304 556.626 355.552 557.934 368.03L462.755 368.466C462.168 373.414 461.882 377.54 461.882 380.877C461.882 403.234 468.49 418.915 481.707 427.922C489.405 432.719 497.455 435.117 505.892 435.117C514.462 435.117 522.797 432.752 530.949 428.039C539.083 423.326 545.389 417.121 549.901 409.423C550.035 409.138 552.299 403.972 556.66 393.959L559.93 397.23C557.599 405.649 553.641 413.163 548.056 419.771C542.471 426.379 535.678 431.494 527.695 435.134L507.653 440.148H503.946C490.294 440.148 478.235 436.844 467.786 430.236C457.337 423.628 449.924 414.085 445.563 401.59C443.383 392.584 442.293 386.278 442.293 382.638C442.293 373.632 444.473 364.961 448.834 356.608C453.195 348.256 459.367 341.178 467.35 335.375C476.491 329.992 485.564 326.805 494.571 325.782ZM495.879 329.924C487.308 330.948 480.197 334.688 474.528 341.145C468.86 347.602 465.522 355.2 464.516 363.904H536.617V360.415C536.617 351.409 533.028 344.08 525.833 338.411C518.638 332.742 510.336 329.908 500.894 329.908H495.879V329.924Z" fill="#F6FAFF"/>
<path d="M638.322 325.346C648.922 325.346 658.398 328.18 666.751 333.832C675.103 339.501 680.151 347.266 681.895 357.145C683.489 383.712 684.294 401.724 684.294 411.167V425.758C685.887 430.689 689.225 434.614 694.307 437.515H655.748C661.702 433.893 665.325 427.721 666.633 418.999C667.203 409.121 667.505 401.355 667.505 395.687C667.505 383.057 666.7 369.908 665.107 356.256C663.799 348.407 660.126 342.285 654.105 337.857C648.084 333.43 641.224 331.216 633.526 331.216C624.234 331.216 616.167 334.419 609.341 340.793C599.613 352.55 594.749 369.539 594.749 391.762C594.749 398.152 595.403 408.685 596.712 423.343C597.148 428.576 600.116 432.853 605.651 436.19C605.785 436.341 605.987 436.559 606.188 436.845C606.406 437.13 606.59 437.348 606.741 437.499H567.965C575.948 432.417 579.94 425.155 579.94 415.712V349.497C579.94 348.927 579.755 347.837 579.403 346.227C579.034 344.633 578.85 343.61 578.85 343.174C576.669 339.987 573.986 337.505 570.799 335.761L571.235 333.581L595.42 328.13V355.351C598.322 345.908 603.655 338.545 611.421 333.245C619.186 327.996 628.159 325.346 638.322 325.346Z" fill="#F6FAFF"/>
<path d="M746.367 325.346H753.344C759.147 325.346 764.883 325.933 770.552 327.09C776.22 328.247 781.688 330.075 786.988 332.541C792.288 335.006 796.531 338.528 799.734 343.107C802.921 347.686 804.531 353.019 804.531 359.124C803.659 375.242 803.223 383.376 803.223 383.527C803.223 394.848 804.229 408.131 806.275 423.394C806.846 428.324 809.613 433.054 814.544 437.549H794.502C791.164 430.572 789.487 423.897 789.487 417.507C785.126 424.92 779.206 430.538 771.742 434.396C764.262 438.237 756.027 440.165 747.021 440.165L726.106 436.241C718.693 434.362 712.605 430.689 707.808 425.238C703.012 419.788 700.613 413.733 700.613 407.058C700.613 401.691 702.576 396.089 706.5 390.286C717.687 377.07 738.232 370.462 768.136 370.462C770.317 370.462 773.805 370.529 778.585 370.68C783.382 370.831 786.72 370.898 788.598 370.898C788.313 361.455 787.072 353.472 784.891 346.931C782.711 340.39 778.35 335.526 771.826 332.34C766.157 329.589 759.985 328.197 753.31 328.197C744.606 328.197 736.505 330.696 729.025 335.711C721.544 340.726 716.278 347.3 713.226 355.417L706.903 336.683L707.339 334.939C720.723 329.555 733.721 326.369 746.367 325.346ZM787.307 375.443H774.677C741.704 375.443 723.859 385.104 721.092 404.408C721.092 404.995 720.941 405.934 720.656 407.242C720.37 408.55 720.219 409.423 720.219 409.859C720.219 417.708 723.406 423.913 729.796 428.475C736.186 433.054 743.583 435.335 752.019 435.335C753.763 435.335 757.168 434.983 762.25 434.245C766.308 432.937 770.166 431.125 773.789 428.794C782.074 422.991 787.005 414.052 788.598 402.01V377.606L787.307 375.443Z" fill="#F6FAFF"/>
</svg>
