<svg width="23" height="23" viewBox="0 0 23 23" fill="none" xmlns="http://www.w3.org/2000/svg">
<path d="M20.6575 6.10352H15.0237" stroke="#340040" stroke-width="1.40846" stroke-miterlimit="10" stroke-linecap="round" stroke-linejoin="round"/>
<path d="M5.63383 6.10352H1.87793" stroke="#340040" stroke-width="1.40846" stroke-miterlimit="10" stroke-linecap="round" stroke-linejoin="round"/>
<path d="M9.38969 9.38973C11.2047 9.38973 12.6761 7.91835 12.6761 6.10331C12.6761 4.28827 11.2047 2.81689 9.38969 2.81689C7.57465 2.81689 6.10327 4.28827 6.10327 6.10331C6.10327 7.91835 7.57465 9.38973 9.38969 9.38973Z" stroke="#340040" stroke-width="1.40846" stroke-miterlimit="10" stroke-linecap="round" stroke-linejoin="round"/>
<path d="M20.6575 16.4321H16.9016" stroke="#340040" stroke-width="1.40846" stroke-miterlimit="10" stroke-linecap="round" stroke-linejoin="round"/>
<path d="M7.51179 16.4321H1.87793" stroke="#340040" stroke-width="1.40846" stroke-miterlimit="10" stroke-linecap="round" stroke-linejoin="round"/>
<path d="M13.1455 19.7183C14.9606 19.7183 16.432 18.247 16.432 16.4319C16.432 14.6169 14.9606 13.1455 13.1455 13.1455C11.3305 13.1455 9.85913 14.6169 9.85913 16.4319C9.85913 18.247 11.3305 19.7183 13.1455 19.7183Z" stroke="#340040" stroke-width="1.40846" stroke-miterlimit="10" stroke-linecap="round" stroke-linejoin="round"/>
</svg>
